<svg width="496" height="123" viewBox="0 0 496 123" fill="none" xmlns="http://www.w3.org/2000/svg">
<g opacity="0.2" clip-path="url(#clip0_2594_106232)">
<path d="M266.98 13.9678C272.718 10.5831 277.21 6.58148 282.265 3.0734C281.87 6.48158 281.769 9.87215 278.495 12.3872C275.101 15.0021 271.908 17.8167 268.453 20.4023C267.772 20.8723 267.233 21.4819 266.882 22.1775C266.532 22.8732 266.382 23.6336 266.445 24.3921C266.498 26.6545 266.632 28.9462 266.05 31.1909C265.869 31.8902 265.929 32.6717 264.711 33.3004V24.4157C264.168 24.3863 263.941 24.3098 263.867 24.3745C256.857 30.3094 249.493 35.9917 243.869 43.1371C242.349 45.068 241.006 47.1016 239.852 49.219C238.266 52.157 238.962 53.7495 242.423 55.0951C246.942 56.858 251.622 56.3468 256.241 55.6299C269.243 53.6085 279.426 47.3092 288.277 39.0708C291.116 36.374 293.744 33.5117 296.143 30.5034C296.598 29.9157 296.88 29.193 297.77 28.9462C298.286 29.6396 297.77 30.1861 297.536 30.6503C290.245 44.1655 279.982 55.2361 264.208 61.7058C258.587 64.0299 252.424 65.165 246.212 65.02C239.685 64.879 235.655 61.1476 235.882 55.4712C236.137 49.2013 238.707 43.619 242.383 38.3598C245.48 34.0736 248.978 30.0208 252.84 26.2431C254.086 24.9856 253.985 24.4333 252.05 24.2805C251.64 24.2154 251.235 24.125 250.839 24.0102C244.023 22.641 242.765 21.0721 243.548 14.9609C244.478 7.65684 251.227 1.21653 259.06 0.135318C263.345 -0.452299 265.568 0.863975 266.498 4.55421C266.972 6.71969 267.143 8.92783 267.007 11.1296C266.96 11.9112 266.98 12.6868 266.98 13.9678ZM257.607 16.1478C259.445 16.1132 261.269 15.8602 263.03 15.3958C263.733 15.2312 264.195 15.0079 264.322 14.2793C264.764 11.8171 262.314 8.88496 259.408 8.86734C255.565 8.86734 252.265 10.2776 249.526 12.5634C248.06 13.7856 248.442 14.6965 250.45 15.1842C252.782 15.8061 255.204 16.1306 257.641 16.1478H257.607Z" fill="#9AD0C2"/>
<path d="M150.462 91.4037C149.404 93.7248 147.215 95.0821 144.838 96.1046C142.446 97.1463 139.966 98.0245 137.42 98.7312C136.048 99.1191 135.351 99.5774 135.177 100.911C134.474 106.411 132.432 111.488 128.168 115.772C129.292 116.753 130.672 116.601 131.924 116.736C142.877 117.911 151.834 114.144 159.815 108.016C160.651 107.396 161.298 106.602 161.696 105.706C161.884 105.376 161.957 105.005 161.905 104.639C161.852 104.272 161.677 103.928 161.401 103.65C160.578 102.839 160.136 103.685 159.527 103.943C158.589 104.343 157.518 104.531 156.661 103.943C155.804 103.356 156.293 102.592 156.373 101.881C156.411 101.663 156.462 101.447 156.527 101.234C156.889 99.9241 156.728 97.9262 158.596 97.8968C160.464 97.8674 162.138 99.1484 162.981 100.835C163.959 102.762 163.604 104.725 162.881 106.641C162.391 108.054 161.539 109.351 160.39 110.431C151.915 118.07 141.558 121.525 129.54 119.956C125.912 119.486 122.537 118.651 118.741 119.11C113.948 119.697 110.359 117.382 108.029 113.821C103.135 106.47 102.573 98.7077 105.72 90.722C107.795 85.4335 111.357 80.9205 115.16 76.5252C118.507 72.6704 121.854 68.8392 125.202 64.9785C125.684 64.4262 126.394 63.9385 126.327 62.9983C123.515 62.9101 120.971 63.9208 118.293 64.2557C117.389 64.3732 116.284 64.8434 115.668 64.2087C115.052 63.5741 115.909 62.8513 116.117 62.158C116.786 59.7722 118.433 58.4971 121.372 58.3384C123.619 58.1511 125.844 57.8053 128.027 57.3042C129.232 57.0692 129.48 57.4923 129.527 58.3972C129.508 59.8722 129.066 61.3194 128.241 62.6046C126.266 66.1949 123.555 69.368 120.696 72.4413C115.026 78.5583 109.984 84.9986 106.516 92.3262C103.838 97.9497 104.428 103.203 108.009 108.286C109.02 109.777 110.43 111.029 112.117 111.932C113.804 112.835 115.717 113.363 117.69 113.469C119.029 113.574 119.879 113.369 119.397 111.941C117.556 106.541 122.778 100.353 129.513 99.0133C131.629 98.5961 133.53 98.3728 133.484 95.8049C133.45 92.9667 133.008 90.393 130.35 88.4832C129.594 87.9426 129.38 88.5655 129.085 88.9945C127.01 91.9325 125.624 92.6729 123.307 92.0559C120.884 91.4095 119.431 89.3587 119.551 86.4383C119.62 84.7544 119.844 83.0782 120.221 81.4259C120.723 79.2283 122.31 78.3879 124.847 78.9579C128.65 79.81 131.281 81.9842 133.008 85.0104C134.814 88.3382 135.658 92.0053 135.465 95.6874C135.418 97.4914 135.981 97.7088 137.902 97.2916C142.654 96.3744 147.034 94.3436 150.576 91.4154L150.462 91.4037ZM131.482 100.265C128.308 100.306 122.223 104.196 121.178 106.87C120.884 107.594 120.758 108.363 120.808 109.131C120.857 109.899 121.081 110.651 121.466 111.341C122.075 112.47 122.805 112.881 124.144 112.005C128.328 109.25 130.558 105.395 132.178 101.188C132.399 100.594 132.406 100.171 131.482 100.265Z" fill="#9AD0C2"/>
<path d="M213.896 23.0112C213.47 27.6709 211.38 32.0938 207.924 35.6509C204.785 38.8945 201.424 41.9795 198.371 45.2819C193.631 50.4001 189.513 55.9354 188.623 62.6284C187.815 68.4463 189.314 74.331 192.868 79.2932C196.175 83.9941 201.35 85.1693 206.987 82.7718C209.966 81.5026 212.658 79.8808 214.204 77.2013C215.624 74.745 214.927 73.5521 211.895 72.8646C209.792 72.3945 207.596 72.3769 205.534 71.6894C204.547 71.4074 203.665 70.8956 202.982 70.2085C202.3 69.5215 201.842 68.6848 201.658 67.7876C199.65 60.4777 200.922 53.7965 206.117 47.8086C208.581 44.9469 211.68 44.565 214.874 46.557C216.34 47.4737 216.132 52.2334 214.613 52.8974C214.084 53.1266 213.89 52.7329 213.588 52.5213C211.399 50.9642 209.417 50.8349 207.362 52.3862C205.907 53.4466 204.734 54.7733 203.924 56.2736C203.114 57.7738 202.688 59.4112 202.676 61.0712C202.615 63.3688 204.55 64.4382 206.726 64.9906C208.658 65.4672 210.638 65.7781 212.638 65.919C215.222 66.1129 216.527 67.4233 217.184 69.4447C219.52 76.5843 214.887 86.0214 207.382 89.4707C201.203 92.3148 194.066 90.5285 190.926 84.8932C185.202 74.6334 184.05 64.1385 190.069 53.5614C191.838 50.3979 194.044 47.4375 196.637 44.7472C203.218 37.9602 210.77 31.8784 213.896 23.0112Z" fill="#9AD0C2"/>
<path d="M85.8355 65.7071C84.8313 65.4368 84.1417 65.2311 83.4321 65.0725C79.2879 64.144 78.2435 62.7632 78.9398 59.0847C79.9105 53.9959 84.202 50.053 89.4307 49.4008C91.6869 49.1246 93.0928 49.8826 93.836 51.7864C94.6461 53.849 94.0435 55.9997 94.5055 58.4912C98.1073 56.4286 100.919 53.849 104.548 51.1929C104.3 53.802 104.032 55.7999 102.144 57.3512C100.136 59.0024 98.1274 60.7065 96.0386 62.2519C95.3842 62.6966 94.8634 63.2748 94.5215 63.9364C94.1796 64.5979 94.027 65.3228 94.077 66.0479C94.077 67.6462 94.2176 69.3386 92.9188 70.8135V65.7247C92.5372 65.6424 92.3029 65.5426 92.2493 65.5954C86.3377 70.3551 80.3189 75.0385 76.6702 81.5023C75.3714 83.7999 75.8668 85.028 78.6787 85.8271C82.4814 86.9554 86.2975 86.4147 90.06 85.5216C98.9911 83.3826 105.653 78.382 111.343 72.2297C112.441 71.0544 113.452 69.7969 114.49 68.5806C115.005 68.8509 114.784 69.1212 114.664 69.3562C110.366 77.5828 104.233 84.3463 95.1817 88.8886C91.1779 90.9027 86.6833 92.0471 82.073 92.2263C76.2016 92.4731 73.2223 89.441 74.0726 84.3699C75.0099 78.7992 78.1967 74.2158 82.1065 69.9144L85.8355 65.7071ZM88.0783 60.0425C88.9956 59.925 90.2274 59.8133 91.4258 59.6077C92.1957 59.4725 92.7648 59.1669 92.6978 58.2796C92.6462 57.4363 92.2265 56.6428 91.5259 56.064C90.8252 55.4851 89.8975 55.1654 88.9353 55.1711C87.2748 55.2941 85.6777 55.7877 84.2957 56.6049C83.4388 57.0457 82.3609 57.5333 82.4145 58.4794C82.4814 59.6546 83.9275 59.3961 84.7778 59.6546C85.8628 59.8691 86.9673 59.9989 88.0783 60.0425Z" fill="#9AD0C2"/>
<path d="M227.942 91.9443C230.346 94.1361 232.461 95.8049 235.621 95.5052C236.036 95.4641 236.458 95.5052 236.873 95.4347C240.301 94.994 240.535 94.7472 240.529 91.721C240.495 83.1594 243.628 78.4585 251.194 75.7084C254.046 74.6742 254.621 75.062 254.963 77.7768C256.101 86.8378 252.091 93.7776 243.809 99.0074C242.47 99.83 242.47 99.8418 242.631 103.479C242.584 99.783 240.127 100.805 237.63 100.923C235.012 101.052 234.771 101.998 234.791 103.861C234.913 106.949 234.419 110.031 233.332 112.969C231.993 116.272 229.73 118.933 226.101 120.526C220.859 122.829 216.547 121.578 214.505 116.795C210.576 107.581 211.499 98.4609 220.872 91.3684C222.961 89.7818 225.137 88.2893 227.306 86.7909C230.098 84.8576 232.809 82.8597 235.206 79.7865C235.112 82.1369 233.914 83.3533 232.736 84.5461C229.596 87.731 225.726 90.2167 222.024 92.8668C217.221 96.2786 214.158 101.224 213.508 106.617C213.293 108.382 213.728 110.16 214.748 111.693C215.769 113.225 217.321 114.43 219.179 115.132C222.586 116.46 226.001 115.661 228.846 112.875C233.773 108.068 233.666 103.473 228.739 98.3199C227.125 96.61 228.156 94.4652 227.942 91.9443ZM241.432 92.2498C241.506 92.6787 241.158 93.2958 241.794 93.5896C242.43 93.8834 242.905 93.3956 243.361 93.1253C247.532 90.6525 250.674 87.0555 252.312 82.8773C252.479 82.4601 252.733 82.0135 252.392 81.6316C251.903 81.0792 251.321 81.5141 250.799 81.6316C245.717 82.8832 241.58 87.5489 241.459 92.2498H241.432Z" fill="#9AD0C2"/>
<path d="M293.479 95.9345C300.93 95.3159 307.99 92.7189 313.717 88.4895C320.894 83.2597 325.768 76.7371 327.563 68.6456C328.507 64.3913 323.171 59.9607 318.364 61.0066C314.569 61.9324 311.013 63.4882 307.886 65.59C306.44 66.5008 306.279 67.5761 307.659 68.6926L311.522 71.8364C315.418 75.0271 316.422 79.1933 316.683 83.5887C316.733 83.9394 316.661 84.295 316.477 84.6094C316.293 84.9237 316.006 85.1822 315.652 85.3515C314.521 80.063 309.185 77.6479 305.925 73.799C304.922 72.6287 304.199 71.2925 303.799 69.8708C303.399 68.4491 303.33 66.9711 303.597 65.5256C303.864 64.08 304.461 62.6968 305.353 61.4588C306.244 60.2208 307.411 59.1535 308.783 58.3212C311.155 56.9404 313.67 55.7599 316.295 54.7955C323.264 52.11 327.563 56.0941 329.015 60.4777C330.354 64.4853 329.973 68.6456 329.631 72.7237C329.151 77.5636 327.438 82.2469 324.617 86.4269C321.711 90.9046 317.48 93.684 311.642 94.5772C306.776 95.3309 301.853 95.7708 296.913 95.8934C295.795 95.9581 294.637 95.9345 293.479 95.9345Z" fill="#9AD0C2"/>
<path d="M5.07447 90.3402C7.87886 92.8178 10.0554 95.7875 11.4614 99.0546C12.1979 100.817 13.0548 100.718 14.4608 99.7245C15.8667 98.7314 16.9981 97.374 18.2568 96.1988C17.9878 97.1542 17.4906 98.0485 16.798 98.8224C16.1055 99.5964 15.2335 100.232 14.2398 100.688C12.9008 101.37 12.7134 102.192 12.9745 103.409C13.298 104.995 13.5215 106.596 13.644 108.204C13.7444 109.379 14.0657 109.967 15.6056 109.432C19.0267 108.257 22.4545 107.081 25.5409 105.277C26.2907 104.843 27.0606 104.484 27.1476 103.515C27.6698 97.7501 28.8281 92.015 27.623 86.2093C27.0807 83.6297 26.5585 81.0559 24.3358 78.6643C23.124 81.7669 23.1441 84.7461 22.7692 87.8135C21.5239 85.3396 22.4947 74.8389 24.2822 71.7422C28.7946 78.394 29.9662 85.4571 29.3302 92.9904C31.695 90.4964 34.4947 88.3465 37.6252 86.6206C39.6805 85.4865 39.9684 85.6041 40.0287 87.743C40.2295 94.6122 37.1833 100.388 31.7604 105.101C29.4172 107.14 27.469 108.927 28.6406 111.912C28.1184 112.135 27.9711 111.982 27.9109 111.782C27.0941 108.721 27.0941 108.709 23.7533 109.726C21.1328 110.482 18.4168 110.953 15.6658 111.13C14.3269 111.242 13.798 111.641 13.6574 112.793C13.3702 115.002 12.2399 117.061 10.4505 118.634C7.86625 120.943 4.51209 120.767 2.19565 118.252C-1.41961 114.333 -0.482318 108.562 4.55226 104.99C5.19022 104.621 5.6834 104.088 5.96486 103.465C6.24632 102.842 6.30243 102.157 6.12558 101.505C5.5632 97.9734 4.6326 94.4653 5.07447 90.3402ZM9.98185 111.365C11.5953 110.443 13.249 110.496 12.9544 108.885C12.6196 107.081 12.3518 105.272 12.0506 103.468C11.8765 102.422 11.3208 102.475 10.2965 102.798C7.77922 103.597 6.64108 105.007 7.31727 107.457C6.80176 106.576 7.31727 105.336 6.16574 105.107C5.32218 104.925 4.6326 105.865 3.98319 106.412C3.05197 107.204 2.3087 108.151 1.79623 109.196C1.28375 110.242 1.01221 111.367 0.997262 112.505C0.836583 115.907 4.5054 118.381 7.81269 117.1C9.74205 116.358 11.2866 115.011 12.1443 113.322C12.9008 111.888 12.8071 110.995 9.98185 111.365ZM37.5448 91.3216C33.0994 94.195 28.5536 97.0332 28.6674 103.156C32.8651 99.5482 36.2326 96.0225 37.5448 91.3216ZM6.07871 94.9472C6.03714 97.1478 6.27744 99.3455 6.79507 101.499C6.91558 102.028 6.46702 103.432 7.87295 102.839C9.01778 102.363 11.3342 102.251 10.7785 100.488C10.1091 98.3729 8.47548 96.6101 6.0854 94.9589L6.07871 94.9472Z" fill="#9AD0C2"/>
<path d="M404.447 31.4377C403.182 35.6039 403.202 39.447 402.512 43.3135C401.374 39.2002 402.438 26.9483 404.192 23.5107C406.308 25.1032 408.457 29.7042 409.803 35.5745C410.787 39.8935 410.774 44.2536 410.472 48.7313C413.257 45.6932 416.599 43.0837 420.361 41.01C421.03 40.6339 421.7 39.8348 422.55 40.1932C423.554 40.5987 423.186 41.6211 423.219 42.3909C423.494 51.2051 419.316 58.3682 412.099 64.1327C410.091 65.7663 409.08 67.2354 409.481 69.5388C409.542 70.2665 409.542 70.9971 409.481 71.7248C409.093 71.525 408.872 71.4779 408.859 71.3956C408.578 70.0324 409.053 68.0991 407.928 67.4528C406.803 66.8064 405.11 68.1931 403.63 68.5927C398.543 69.9698 393.202 70.4785 387.897 70.0912C391.465 68.9159 395.047 67.7877 398.609 66.6124C399.546 66.301 400.41 65.8192 401.354 65.5312C406.221 64.0622 408.049 61.3533 408.497 56.5995C409.013 50.7233 409.234 44.9118 408.183 39.1002C407.694 36.4795 406.897 33.8763 404.447 31.4377ZM409.602 60.6775C412.138 58.7621 414.388 56.5725 416.297 54.1609C417.88 52.3697 419.167 50.3915 420.12 48.2847C420.341 47.7617 420.789 47.0566 420.26 46.6452C419.557 46.1222 419.102 46.9332 418.674 47.274C416.826 48.7431 414.931 50.2121 413.244 51.7986C410.787 54.1374 409.669 56.9814 409.602 60.6775Z" fill="#9AD0C2"/>
<path d="M416.304 92.5613C415.586 86.1609 416.203 79.6994 418.125 73.4932C423.655 80.8913 424.819 89.0591 424.15 97.7441C426.627 95.0057 429.593 92.6382 432.934 90.7338C433.797 90.2461 434.688 89.1884 435.712 89.6467C436.736 90.1051 436.328 91.4096 436.328 92.2969C436.375 100.435 432.472 107.105 425.824 112.476C423.748 114.15 422.637 115.666 423.099 118.064C423.152 118.772 423.152 119.483 423.099 120.191C422.001 119.016 422.302 118.052 422.202 117.188C422.054 115.854 421.646 115.426 420.006 116.013C414.402 118.211 408.41 118.634 402.318 118.734C402.318 117.905 403.061 118.046 403.516 117.917C408.919 116.366 414.228 114.697 419.182 112.129C420.916 111.218 421.8 110.19 421.76 108.292C421.68 103.979 423.26 99.7596 422.751 95.3643C422.342 91.8385 422.175 88.3128 420.803 84.9869C420.347 83.5518 419.48 82.243 418.285 81.1851C417.047 85.0986 417.033 88.8946 416.304 92.5613ZM433.71 95.1292C428.515 99.031 423.233 102.322 423.34 108.885C427.484 106.711 433.302 99.2014 433.697 95.1292H433.71Z" fill="#9AD0C2"/>
<path d="M355.065 23.1582C355.668 24.8858 354.945 25.9141 354.483 26.966C353.09 30.1626 350.7 32.8421 348.457 35.5687C344.695 40.1873 341.173 44.9118 340.075 50.6587C339.506 53.6379 339.098 56.6171 339.814 59.6316C340.959 64.4089 346.302 66.2834 350.774 63.3806C353.527 61.655 355.548 59.1742 356.518 56.3292C357.408 53.7084 356.431 52.1101 353.512 51.1758C350.901 50.3414 348.866 51.2404 347.587 53.873C349.596 54.3666 352.233 54.3666 351.45 57.2459C351.162 58.3153 351.45 59.99 349.716 60.0076C347.801 60.0076 345.572 59.9254 344.621 57.8922C342.793 53.967 346.382 46.6746 350.894 45.1057C353.894 44.0597 356.331 44.853 357.864 47.3621C358.791 48.9346 359.251 50.6868 359.203 52.4568C359.203 57.1577 357.897 61.6178 354.831 65.5666C353.191 67.6878 351.115 69.3273 348.136 69.862C343.597 70.667 340.363 69.1569 338.957 65.2727C337.156 60.3133 337.618 55.2832 338.696 50.2532C339.821 45.0998 342.713 40.6515 345.953 36.3443C349.127 32.1781 353.472 28.6524 355.065 23.1582Z" fill="#9AD0C2"/>
<path d="M170.928 75.8086C173.191 73.9165 174.51 71.6954 173.506 69.0981C172.381 66.16 170.379 63.6685 166.724 62.8164C164.287 62.2288 162.546 63.4687 161.281 65.1669C160.138 66.7156 159.356 68.4478 158.98 70.2632C158.605 72.0787 158.643 73.9414 159.092 75.744C159.252 76.4961 159.654 77.2483 159.172 78.5411C157.304 72.0773 156.594 66.1306 159.386 60.2368C160.571 57.7453 162.955 56.4408 166.081 56.2645C169.094 56.0999 171.263 57.2987 172.682 59.514C176.231 65.0611 178.5 75.7322 169.897 81.8905C169.261 82.3429 169.107 83.0011 168.793 83.5887C167.503 86.0703 165.389 88.1516 162.727 89.5589C161.388 90.264 159.908 90.975 158.188 89.8938C159.768 88.2602 161.796 87.0087 162.874 85.0343C163.148 84.6035 163.313 84.126 163.358 83.6342C163.404 83.1425 163.327 82.6479 163.135 82.1843C161.622 78.1415 162.084 74.0399 163.858 70.144C164.863 67.9346 166.905 67.87 168.752 69.5976C170.6 71.3251 170.821 73.511 170.928 75.8086ZM168.98 77.072C168.311 75.8263 167.467 74.7215 165.787 74.5688C164.501 74.463 164.033 75.2798 164.073 76.2905C164.133 77.8359 165.412 78.4941 166.864 78.641C167.379 78.6678 167.886 78.5198 168.28 78.2277C168.673 77.9357 168.924 77.5219 168.98 77.072Z" fill="#9AD0C2"/>
<path d="M194.427 102.034C189.922 110.707 183.561 117.641 172.093 119.386C165.693 120.356 162.888 117.676 164.401 112.106C165.418 108.368 167.748 105.272 170.46 102.334L172.783 99.8067C172.548 99.0957 171.859 99.1369 171.357 99.0135C167.936 98.1791 167.105 97.0743 167.915 94.0892C168.726 91.1041 170.52 88.6832 173.941 87.5374C177.362 86.3915 178.842 87.2083 179.337 90.2933C179.504 91.3686 179.524 92.4674 179.632 93.819C182.571 92.5379 184.445 90.2932 187.143 88.6714C186.996 90.8162 186.474 92.5144 184.639 93.7249C184.11 94.0716 183.682 94.5476 183.153 94.9001C180.475 96.7041 178.38 98.7608 179.096 102.069C179.137 102.188 179.151 102.313 179.137 102.436C179.123 102.56 179.081 102.68 179.014 102.789C178.946 102.898 178.855 102.995 178.745 103.073C178.635 103.151 178.509 103.209 178.373 103.244V99.7186C177.536 99.2662 177.248 99.7539 176.934 100.024C173.044 103.35 168.953 106.523 166.362 110.83C164.849 113.351 165.345 114.391 168.578 115.003C172.153 115.678 175.561 114.856 178.842 113.716C184.613 111.718 189.004 108.163 192.774 103.944C193.349 103.321 193.885 102.674 194.427 102.034ZM174.704 95.1587C175.836 94.7357 177.864 95.7463 178.172 93.7543C178.38 92.4087 176.639 91.2687 174.945 91.4685C174.617 91.5009 174.298 91.5824 174.001 91.7094C172.662 92.297 170.346 92.5145 170.654 94.0599C170.942 95.335 173.171 94.9648 174.704 95.1587Z" fill="#9AD0C2"/>
<path d="M464.989 96.892C460.731 97.9497 456.326 97.3268 452.048 97.9615C451.064 98.1084 450.04 98.2435 449.109 98.4727C448.332 98.6549 447.221 98.6548 447.013 99.4246C446.806 100.194 448.178 100.283 448.587 101.187C446.853 100.67 445.393 99.166 443.559 101.07C441.611 103.097 440.747 105.183 441.35 107.739C441.734 109.324 442.541 110.807 443.705 112.065C444.869 113.322 446.357 114.32 448.046 114.974C449.735 115.629 451.577 115.922 453.42 115.83C455.264 115.738 457.056 115.263 458.649 114.444C461.646 112.814 464.201 110.627 466.134 108.039C468.866 104.619 471.416 101.088 474.048 97.6088C474.59 96.8919 474.992 96.034 476.331 95.7696C476.712 96.7568 476.886 97.7322 476.023 98.5608C472.996 101.499 471.336 105.13 469.02 108.433C467.354 110.976 465.329 113.326 462.994 115.425C457.371 120.203 450.006 120.479 444.771 116.266C439.227 111.806 438.745 103.115 443.619 99.4598C444.202 99.0191 444.65 98.5549 444.255 97.7557C442.16 93.5073 444.376 90.0815 447.094 86.785C447.871 85.9224 448.707 85.1021 449.598 84.3287C449.891 84.1373 450.106 83.8686 450.212 83.5618C450.318 83.2551 450.309 82.9266 450.187 82.6246C449.937 81.8222 449.9 80.9803 450.079 80.1635C450.258 79.3466 450.648 78.5766 451.219 77.9127C451.79 77.2488 452.526 76.7085 453.372 76.3335C454.218 75.9585 455.151 75.7587 456.098 75.7495C457.143 75.7495 457.283 76.3724 457.257 77.1011C457.176 79.3751 456.587 81.4318 454.545 83.0419C452.503 84.6519 450.615 86.2267 448.747 87.9132C446.377 89.9181 444.852 92.57 444.422 95.4347C444.141 97.6089 444.978 98.1789 447.308 97.5971C453.133 96.1281 459.098 97.0624 464.989 96.892ZM451.68 82.56C453.528 81.3083 455.322 80.3153 455.985 78.3115C451.325 78.7346 450.214 79.8099 451.68 82.56Z" fill="#9AD0C2"/>
<path d="M377.607 75.5853C374.608 76.3374 371.541 76.4021 368.468 76.4726C364.706 76.549 360.93 76.6607 357.348 77.8418C349.113 80.5683 347.118 87.4786 352.856 93.3607C357.663 98.2908 364.652 99.1487 370.845 95.5584C374.467 93.4547 377.199 90.5695 379.629 87.4845C382.521 83.8002 385.246 80.0159 388.031 76.2669C388.7 75.4031 389.236 74.5041 390.649 74.1104C391.218 75.2209 391.419 76.4609 390.468 77.3247C386.752 80.8151 384.777 85.2399 381.972 89.218C379.903 92.1561 377.707 95.0236 374.815 97.3976C370.423 100.994 365.315 102.622 359.383 101.07C349.421 98.4612 345.103 86.3211 351.537 79.4224C353.78 77.0073 356.779 76.073 360.073 75.7322C365.891 75.1387 371.749 75.3679 377.607 75.5853Z" fill="#9AD0C2"/>
<path d="M354.603 120.279C345.738 121.756 336.563 120.277 328.875 116.131C323.438 113.298 321.477 107.869 323.137 102.028C324.71 96.4808 328.493 92.1266 333.039 88.2542C334.378 87.079 334.713 86.3092 333.708 84.7285C332.035 82.1548 333.708 77.9709 336.688 76.5842C338.904 75.5558 341.153 74.5745 343.456 73.7225C345.337 73.0232 346.301 73.6696 346.308 75.4853C346.308 79.8513 344.969 83.6473 340.952 86.6501C337.705 89.071 334.666 91.7212 331.713 94.4125C328.058 97.7442 325.44 101.599 324.489 106.265C324.22 107.416 324.267 108.607 324.627 109.74C324.987 110.872 325.649 111.913 326.558 112.775C330.488 116.789 335.73 118.487 341.488 119.274C345.846 119.874 350.191 120.426 354.603 120.279ZM344.427 77.9122C342.303 77.9237 340.211 78.3661 338.314 79.2049C334.9 80.5917 334.706 80.9678 336.078 83.9059C336.266 84.3231 336.025 84.9518 336.842 85.2104C339.767 83.1654 342.854 81.2087 344.427 77.9122Z" fill="#9AD0C2"/>
<path d="M385.212 62.6519C386.551 60.889 386.645 59.1967 387.127 57.616C388.044 54.6485 388.727 51.6106 390.441 48.8899C392.028 46.3808 394.237 45.4053 396.286 46.2398C398.334 47.0742 399.747 50.5999 398.883 52.6389C398.214 54.2431 397.27 54.3548 395.75 53.015C393.668 51.1699 392.999 51.2168 391.332 53.3969C389.664 55.5769 389.176 58.2859 388.526 60.8597C388.038 62.7871 387.596 64.732 386.933 66.6183C386.52 68.2027 385.414 69.581 383.853 70.4554C382.829 66.0424 381.57 61.8409 379.22 57.9509C378.551 56.8227 378.002 56.1234 376.214 56.4995C374.206 56.9167 371.401 55.148 371.039 53.4028C370.638 51.5048 371.802 49.9535 373.429 48.8605C375.324 47.5912 377.138 48.4315 378.604 49.642C382.354 52.727 384.255 56.6523 384.998 61.0536C385.072 61.459 385.112 61.8703 385.212 62.6519Z" fill="#9AD0C2"/>
<path d="M285.887 98.6137C281.91 99.6244 277.819 99.4716 273.776 99.7419C270.281 99.977 267.014 100.688 264.275 102.727C263.074 103.535 262.166 104.631 261.66 105.882C261.153 107.133 261.071 108.487 261.423 109.778C261.795 111.401 262.596 112.923 263.764 114.222C264.931 115.521 266.432 116.56 268.143 117.254C269.854 117.949 271.727 118.279 273.611 118.219C275.495 118.158 277.336 117.709 278.984 116.906C282.178 115.314 284.541 112.94 286.737 110.442C289.79 106.917 292.307 103.121 295.059 99.4481C295.641 98.6666 296.09 97.7382 297.429 97.5972C297.964 99.0662 297.429 100.112 296.304 101.293C293.726 103.914 292.173 107.134 290.191 110.107C288.378 113.008 286.101 115.665 283.43 117.999C278.482 122.113 272.202 122.912 267.127 120.156C264.422 118.647 262.348 116.408 261.217 113.776C260.086 111.144 259.958 108.26 260.854 105.559C261.388 103.845 262.497 102.312 264.038 101.16C265.578 100.007 267.478 99.2875 269.491 99.0955C271.058 98.8607 272.642 98.7194 274.231 98.6725C278.114 98.5726 282.004 98.6137 285.887 98.6137Z" fill="#9AD0C2"/>
<path d="M45.4451 51.6573C45.1706 52.9735 44.1463 53.8314 43.122 54.6424C41.388 56.0174 39.5937 57.3454 37.766 58.6441C34.9628 60.6763 33.1655 63.5827 32.7515 66.7531C32.5783 67.853 32.8211 68.9724 33.4428 69.9395C34.0644 70.9065 35.0305 71.6678 36.1927 72.1064C38.4154 72.9819 40.5176 72.4178 42.3788 70.4787C44.4475 68.328 45.7263 64.438 42.3186 62.017C41.0867 61.1355 41.7361 59.8545 41.6892 58.5441C42.6079 59.0827 43.5752 59.5544 44.5814 59.9544C47.4134 60.8535 49.3081 59.7253 49.1943 57.1691C49.0269 53.4436 50.6537 50.6231 54.3226 48.731C57.2482 47.2208 57.8776 47.5557 58.0717 50.4468C58.4466 56.0585 55.0858 59.8487 50.2453 62.9278C50.051 63.0533 49.8171 63.1231 49.5759 63.1276C45.7664 62.8749 45.4987 64.8904 45.4987 67.5347C45.5561 68.9396 45.2199 70.3354 44.5196 71.5996C43.8192 72.8639 42.7761 73.9579 41.4817 74.7859C37.9133 77.06 34.7064 76.202 33.1532 72.5823C30.743 66.9412 32.3297 61.4176 37.5317 57.4453C40.1092 55.4768 43.0148 53.8373 45.4451 51.6573ZM56.4248 52.4329C56.485 51.5926 56.2775 51.4928 55.1594 51.7396C52.4814 52.3272 49.6361 55.6707 49.7231 58.0329C49.7231 58.8732 50.1516 59.1494 50.9483 58.6852C53.5178 57.1961 55.4456 54.9951 56.4248 52.4329Z" fill="#9AD0C2"/>
<path d="M483.226 82.7305C489.546 88.4656 493.938 95.0704 495.779 102.868C496.183 104.906 495.982 107 495.197 108.95C493.068 114.826 487.685 117.929 482.068 120.837C482.911 119.039 484.599 117.858 486.018 116.507C489.212 113.477 491.406 109.741 492.365 105.7C493.55 100.858 490.691 94.2184 485.897 91.1217C486.399 93.4251 486.855 95.5522 487.317 97.6794L486.594 97.8146C484.398 93.0197 483.48 87.9544 483.226 82.7305Z" fill="#9AD0C2"/>
<path d="M382.333 112.863C384.616 112.581 386.538 112.458 388.399 112.094C394.719 110.854 399.158 107.651 401.521 102.286C403.155 98.5668 403.831 94.6473 404.681 90.7808C404.967 89.1139 405.51 87.4889 406.295 85.9506C407.111 84.4992 408.303 84.4169 409.274 85.7861C409.81 86.6108 410.192 87.5055 410.405 88.4362C410.606 89.2001 411.135 90.2461 409.113 89.5351C407.466 88.9474 407.46 90.6222 407.279 91.4977C406.502 95.2409 405.973 99.0251 405.136 102.762C403.376 110.572 399.332 113.428 390.22 113.428C387.73 113.433 385.219 113.616 382.333 112.863Z" fill="#9AD0C2"/>
<path d="M470.178 87.5434C469.334 84.0764 468.417 80.9679 466.75 78.071C466.154 77.0368 465.625 76.2318 463.965 76.4668C462.157 76.7254 460.992 75.6324 460.216 74.3514C459.546 73.1762 460.463 72.2184 461.146 71.3487C462.358 69.7974 464.233 69.7562 466.08 71.2605C468.758 73.4347 470.097 76.2376 470.86 79.3167C470.974 79.7986 471.021 80.2981 471.155 81.0796C472.494 79.6223 472.494 78.0299 472.929 76.6196C473.646 74.4395 474.161 72.2007 475.54 70.2381C476.832 68.3988 478.586 67.8347 480.106 68.6809C481.626 69.5271 482.563 72.4475 481.686 73.8402C480.977 74.9743 480.274 74.4631 479.53 73.8755C477.596 72.3594 477.08 72.4299 475.721 74.4631C474.636 76.0673 474.295 77.883 473.833 79.6694C473.143 82.3313 473.003 85.2105 470.178 87.5434Z" fill="#9AD0C2"/>
<path d="M66.9023 68.9922L58.8684 72.8999C56.2796 74.1005 53.886 75.6005 51.7517 77.3598C47.487 81.009 46.6635 85.8274 49.5089 90.4167C50.7474 92.4205 52.5015 93.7779 55.2598 93.6839C57.8039 93.5957 61.071 91.1218 61.9548 88.6538C62.7715 86.4209 61.7673 84.6404 60.0065 83.1009C59.5914 82.7424 59.0625 82.5133 58.6675 82.1431C58.3414 81.8529 58.145 81.4694 58.1143 81.0627C58.0836 80.656 58.2205 80.2532 58.5002 79.9277C59.0224 79.158 59.712 79.8514 60.1404 80.1863C61.3589 81.1383 62.5774 81.7023 64.2109 80.9561C65.003 80.6556 65.6436 80.1126 66.0131 79.4282C66.3826 78.7438 66.456 77.9648 66.2194 77.2365C66.9291 77.5127 66.5475 78.3294 67.2437 78.4117C67.94 78.494 68.1542 77.9122 68.4354 77.4715C69.3794 75.9849 68.1877 74.4806 68.402 72.465C69.674 75.0682 70.1159 77.3129 69.5401 79.5164C68.9309 81.8669 66.4002 82.8717 64.2645 83.7708C62.9255 84.3584 62.7715 84.7579 62.9255 85.8039C63.2904 88.3717 62.716 90.9748 61.2853 93.2373C58.9286 96.9921 54.4966 97.4975 51.1291 94.4125C45.6459 89.4001 45.9807 80.6682 51.8454 75.9907C54.6037 73.8165 62.5171 70.0146 66.9023 68.9922Z" fill="#9AD0C2"/>
<path d="M43.4635 94.0068C42.8743 95.7697 41.542 97.1624 40.3369 98.602C37.2707 102.286 34.981 106.241 35.0346 110.942C35.0082 111.898 35.1806 112.849 35.5434 113.751C36.4807 115.902 39.0046 116.818 41.2608 115.696C42.3164 115.164 43.2415 114.454 43.9827 113.607C44.7239 112.76 45.2664 111.792 45.5791 110.76C45.7547 110.3 45.7425 109.801 45.5446 109.349C45.3466 108.896 44.9754 108.518 44.4945 108.28C44.0741 107.972 43.56 107.78 43.016 107.727C42.472 107.673 41.9222 107.762 41.4349 107.98C40.9127 108.204 40.4908 108.574 40.2365 109.032C39.9219 109.831 40.906 109.708 41.3412 109.867C42.6065 110.325 42.5463 111.112 42.2316 112.041C42.0174 112.693 41.8835 113.357 40.7922 113.175C39.7009 112.993 38.6364 112.899 38.208 111.776C37.3644 109.567 39.1921 105.554 41.5554 104.443C43.6375 103.467 45.4786 104.073 46.436 106.035C48.1164 109.508 46.0544 116.025 42.5663 118.287C39.2657 120.403 35.5702 119.31 34.6195 115.819C33.4821 111.484 34.0974 106.937 36.3601 102.956C38.1544 99.6304 40.7654 96.7921 43.4635 94.0068Z" fill="#9AD0C2"/>
<path d="M442.26 67.7641C442.092 71.519 435.766 72.0713 436.964 76.261C436.884 75.6734 436.803 75.0388 436.683 74.0751C433.717 76.3785 431.039 78.5233 429.272 81.3968C428.267 83.0362 428.702 83.8354 430.838 84.0998C434.045 84.4935 436.944 83.6179 439.655 82.19C442.367 80.7621 444.409 78.8583 446.464 76.9015C443.572 81.9197 439.568 85.7921 432.9 86.8263C428.923 87.414 427.122 85.7628 428.033 82.3546C428.653 80.2925 429.777 78.3735 431.327 76.7311L433.389 74.4159C431.749 73.7577 429.847 73.5991 430.202 71.4778C430.557 69.3565 431.642 67.7347 433.898 66.865C436.027 66.0423 437.044 66.5771 437.366 68.5632C437.453 69.1509 437.486 69.7385 437.567 70.4671C439.555 70.1674 440.405 68.5104 442.26 67.7641ZM434.527 71.6541C435.337 71.4484 436.589 71.7481 436.683 70.6728C436.705 70.4702 436.672 70.2661 436.589 70.0764C436.505 69.8867 436.372 69.7166 436.201 69.5798C436.029 69.443 435.824 69.3431 435.601 69.288C435.378 69.2329 435.143 69.2242 434.915 69.2625C433.69 69.3682 432.097 69.5857 432.043 70.802C432.01 71.5777 433.603 71.5072 434.527 71.6541Z" fill="#9AD0C2"/>
<path d="M397.625 120.738C392.293 121.466 386.835 120.784 381.945 118.781C376.388 116.56 374.186 112.411 375.873 107.234C377.031 103.673 379.468 100.806 382.407 98.2497C383.438 97.3506 384 96.6925 383.21 95.2763C382.032 93.1609 383.271 90.6459 385.627 89.5118C386.504 89.0946 387.408 88.7068 388.305 88.3366C391.767 86.8793 392.175 87.132 392.034 90.3991C391.994 91.502 391.701 92.5864 391.173 93.5878C390.645 94.5892 389.893 95.4872 388.961 96.2283C386.544 98.2555 384.081 100.248 381.744 102.345C379.242 104.535 377.499 107.302 376.716 110.325C376.439 111.252 376.439 112.227 376.719 113.154C376.998 114.081 377.546 114.928 378.31 115.614C380.61 117.773 383.648 119.217 386.966 119.727C390.467 120.403 394.04 120.742 397.625 120.738ZM390.809 90.5577C389.604 90.4786 388.394 90.6454 387.274 91.045C386.155 91.4446 385.156 92.0663 384.355 92.8612C383.458 93.6721 385.125 94.6652 385.219 95.8757C387.562 94.3479 389.644 92.9787 390.809 90.5577Z" fill="#9AD0C2"/>
<path d="M289.154 94.2596C283.939 94.8112 278.655 93.9932 273.97 91.9091C269.35 89.9406 267.275 86.0917 268.4 81.6904C269.424 77.6594 272.095 74.5156 275.336 71.701C276.246 70.9136 276.675 70.3435 276.005 69.1037C275.453 68.036 275.396 66.8214 275.847 65.7177C276.299 64.614 277.222 63.708 278.422 63.1923C279.821 62.5341 281.247 61.9289 282.693 61.3648C283.932 60.8829 284.622 61.2825 284.702 62.4813C284.836 65.3077 284.166 67.8579 281.669 69.8676C279.33 71.7558 277.034 73.6832 274.78 75.6497C272.501 77.61 270.804 80.0313 269.839 82.7011C268.761 85.7097 269.558 88.1425 272.336 90.1639C275.684 92.579 279.62 93.3018 283.718 93.7484C285.519 93.9129 287.34 94.0774 289.154 94.2596ZM283.51 64.25C277.886 64.5262 276.146 66.2302 278.228 69.3446C280.29 67.9167 282.345 66.5535 283.51 64.2441V64.25Z" fill="#9AD0C2"/>
<path d="M141.919 83.6356C141.129 81.0442 140.58 78.6878 139.321 76.543C138.759 75.5852 138.424 74.6156 136.643 74.833C135.958 74.8887 135.274 74.7104 134.734 74.335C134.194 73.9597 133.84 73.4162 133.744 72.8175C133.656 72.2663 133.767 71.7045 134.063 71.2119C134.358 70.7193 134.823 70.3209 135.391 70.0734C136.657 69.4505 137.802 69.997 138.739 70.8373C141.069 72.8939 142.086 75.503 142.696 78.4763C143.921 76.7663 143.941 74.9506 144.557 73.3229C145.112 71.8597 145.521 70.3437 146.733 69.1744C147.75 68.193 148.935 67.8345 150.214 68.8864C151.493 69.9382 151.794 72.1007 150.917 72.9175C150.16 73.6167 149.658 73.0115 149.297 72.6001C148.038 71.1605 147.215 71.9596 146.451 72.9762C145.173 74.6803 144.979 76.6841 144.483 78.6056C144.068 80.3273 143.807 82.096 141.919 83.6356Z" fill="#9AD0C2"/>
<path d="M227.4 78.6938C226.617 75.9907 225.981 73.5756 224.722 71.3427C224.207 70.4612 223.778 69.7267 222.339 69.8795C221.658 69.9505 220.971 69.7942 220.416 69.4414C219.86 69.0887 219.476 68.5655 219.339 67.9756C219.225 67.4283 219.311 66.8634 219.583 66.3612C219.856 65.859 220.303 65.4452 220.859 65.1786C222.265 64.3912 223.43 65.1257 224.401 66.0012C226.637 68.0226 227.681 70.5377 228.163 73.5051C229.502 72.089 229.408 70.4789 229.917 69.0686C230.473 67.5231 230.861 65.9307 231.973 64.6145C232.89 63.5274 234.102 62.7164 235.554 63.8388C236.233 64.2863 236.708 64.9306 236.896 65.657C237.083 66.3834 236.971 67.1447 236.579 67.8052C236.137 68.6161 235.427 68.3105 234.992 67.8052C233.332 65.9248 232.502 67.3116 231.738 68.4574C230.587 70.2203 230.439 72.23 229.931 74.1515C229.455 75.7204 229.167 77.3305 227.4 78.6938Z" fill="#9AD0C2"/>
<path d="M291.497 84.9342C290.827 83.0479 290.339 81.4084 289.669 79.8454C289.1 78.5056 288.631 77.066 286.322 77.2246C285.317 77.2893 284.467 76.4196 284.313 75.5146C284.257 75.0371 284.368 74.5559 284.633 74.1357C284.897 73.7155 285.302 73.3765 285.793 73.1642C286.783 72.6647 287.741 73.0937 288.524 73.7518C289.561 74.6126 290.368 75.6641 290.888 76.8309C291.383 77.8886 291.744 78.9933 292.3 80.433C293.465 77.8769 293.639 75.4148 294.978 73.3228C295.648 72.318 296.451 71.3544 297.931 71.8127C299.41 72.271 299.785 73.4403 299.665 74.6978C299.557 75.8202 299.029 76.5018 297.85 75.3619C296.672 74.2219 295.962 75.0034 295.36 75.832C294.262 77.3539 294.081 79.1402 293.653 80.8561C293.271 82.2193 293.01 83.6825 291.497 84.9342Z" fill="#9AD0C2"/>
<path d="M292.602 121.508C301.305 120.162 304.585 117.394 306.313 109.597C306.761 107.587 307.29 105.589 307.853 103.597C308 103.056 308.268 102.322 309.078 102.422C310.156 102.533 310.47 103.403 310.651 104.185C310.772 104.69 311.1 105.36 309.921 105.436C308.743 105.513 308.81 106.347 308.669 107.058C308.187 109.591 307.779 112.129 307.196 114.644C306.065 119.521 303.528 121.355 297.824 121.502C296.103 121.543 294.349 121.508 292.602 121.508Z" fill="#9AD0C2"/>
<path d="M67.6926 115.667C67.8198 115.749 67.9939 115.808 68.0675 115.919C70.2836 119.087 72.3389 120.033 75.2913 119.192C78.2438 118.352 80.433 114.932 79.9778 111.929C79.6601 110.204 79.1258 108.515 78.3844 106.893C77.8287 105.548 76.9919 104.802 75.298 105.019C74.6687 102.892 73.1892 100.953 73.4436 98.3789C75.3583 99.8068 76.2086 101.64 77.4605 103.215C80.4866 106.976 81.4775 113.71 79.5694 117.941C77.8756 121.643 73.3699 122.694 70.3103 120.044C68.9015 118.885 67.9792 117.343 67.6926 115.667Z" fill="#9AD0C2"/>
<path d="M362.905 116.472C361.926 115.128 360.806 113.869 359.557 112.711C358.89 112.192 358.455 111.48 358.332 110.704C358.209 109.928 358.407 109.139 358.888 108.48C359.432 107.69 360.218 107.051 361.157 106.635C362.096 106.219 363.15 106.044 364.197 106.13C365.576 106.241 366.286 107.305 366.42 108.48C366.762 110.444 366.607 112.451 365.964 114.356C364.592 117.882 362.55 119.163 357.87 119.057C359.678 118.117 361.278 117.294 362.871 116.442C363.615 114.756 365.175 113.504 365.777 111.688C366.313 110.084 365.991 108.827 364.21 108.304C362.43 107.781 360.903 108.838 359.524 109.82C359.452 109.889 359.398 109.971 359.366 110.06C359.335 110.149 359.326 110.244 359.341 110.336C359.355 110.429 359.393 110.518 359.452 110.596C359.51 110.674 359.587 110.74 359.678 110.789C362.081 112.129 362.108 114.462 362.905 116.472Z" fill="#9AD0C2"/>
<path d="M245.824 111.7C249.239 113.463 251.85 112.229 252.8 108.65C253.939 111.259 252.519 113.122 249.902 114.274C249.404 114.422 248.984 114.723 248.719 115.121C248.455 115.52 248.363 115.989 248.462 116.442C248.618 117.916 248.278 119.397 247.485 120.702C245.798 123.452 242.658 123.805 240.368 121.396C239.406 120.426 238.711 119.275 238.336 118.032C237.961 116.789 237.917 115.487 238.206 114.227C238.366 115.755 238.48 117.283 239.31 118.681C240.14 120.08 241.319 121.243 243.374 121.114C245.543 120.973 246.829 119.703 247.719 118.176C248.609 116.648 248.027 115.32 246.768 114.156C246.072 113.475 244.854 113.011 245.824 111.7Z" fill="#9AD0C2"/>
<path d="M93.207 99.4775C94.392 97.2739 94.4121 95.2878 95.5503 93.6836C96.039 92.9961 96.6683 92.238 97.7462 92.6141C98.2592 92.7985 98.6829 93.1341 98.9444 93.5631C99.2058 93.9921 99.2888 94.4877 99.1789 94.9645C99.1187 95.4699 98.7437 96.1398 98.0408 95.6285C95.9051 94.0772 95.6775 95.893 95.2155 96.8919C94.8054 98.0048 94.4855 99.1418 94.2582 100.294C94.0857 101.314 93.5461 102.259 92.7183 102.991C92.2697 101.763 91.9283 100.682 91.4864 99.6361C90.9575 98.3669 90.6496 96.9566 88.4871 96.939C88.0599 96.9004 87.6655 96.7203 87.3844 96.4353C87.1032 96.1503 86.9565 95.7819 86.9741 95.4052C86.9799 95.0724 87.089 94.7472 87.2895 94.4646C87.49 94.182 87.7744 93.9526 88.1122 93.8011C88.9826 93.4132 89.7324 93.7247 90.3818 94.2712C91.9082 95.5404 92.5643 97.2504 93.207 99.4775Z" fill="#9AD0C2"/>
<path d="M9.22566 82.854C8.7771 81.573 8.44905 80.3743 7.94023 79.246C7.43142 78.1178 7.08329 76.7076 5.00786 76.7722C4.79686 76.7552 4.59172 76.702 4.40417 76.6154C4.21663 76.5288 4.05035 76.4107 3.91482 76.2677C3.77929 76.1248 3.67717 75.9598 3.6143 75.7822C3.55142 75.6046 3.52902 75.4178 3.54837 75.2326C3.56159 74.8997 3.67353 74.5755 3.87312 74.2921C4.07272 74.0087 4.35307 73.7759 4.6865 73.6167C5.57023 73.1877 6.30667 73.6167 6.9226 74.1279C8.46913 75.4559 9.18549 77.16 9.72778 79.5046C10.6115 77.2599 11.2542 75.4559 12.0442 73.699C12.4325 72.8293 13.2359 72.2299 14.4209 72.5707C15.4586 72.8704 15.6863 73.746 15.7197 74.5334C15.7197 75.121 15.4519 76.1082 14.4142 75.3443C12.948 74.2572 12.4057 75.2855 12.0509 76.1082C11.5909 77.2777 11.2131 78.4708 10.9195 79.6809C10.5847 80.7856 10.4843 81.9785 9.22566 82.854Z" fill="#9AD0C2"/>
<path d="M209.678 108.568C209.718 108.962 209.892 109.326 209.752 109.485C207.455 112.176 206.103 115.402 203.572 117.964C201.416 120.144 198.759 121.29 195.538 120.315C192.479 119.381 191.126 117.159 190.899 113.851C191.3 114.609 191.474 114.915 191.622 115.226C193.63 119.298 198.163 120.238 201.972 117.324C204.201 115.614 205.681 113.387 207.295 111.254C207.984 110.355 208.413 109.273 209.678 108.568Z" fill="#9AD0C2"/>
<path d="M313.095 38.9063C313.014 40.4812 310.906 43.6542 310.216 43.2664C308.843 42.4966 306.627 42.4614 306.38 40.6163C306.192 39.2177 308.288 36.0682 309.058 36.1093C310.618 36.1739 313.155 37.9485 313.095 38.9063Z" fill="#9AD0C2"/>
<path d="M139.027 110.037C141.109 108.962 143.211 107.922 145.267 106.805C146.137 106.329 147.215 105.953 145.936 104.69C145.012 103.791 145.595 102.433 145.862 101.293C145.887 101.146 145.947 101.004 146.04 100.879C146.132 100.754 146.255 100.648 146.399 100.569C146.543 100.489 146.705 100.438 146.873 100.419C147.042 100.4 147.213 100.414 147.375 100.459C149.217 100.765 150.723 101.546 151.285 103.186C151.741 104.484 151.553 105.63 149.545 105.536C148.393 105.465 147.683 105.965 146.927 106.57C144.76 108.408 142.002 109.618 139.027 110.037Z" fill="#9AD0C2"/>
<path d="M62.517 97.6206C62.7514 100.805 61.3521 102.727 59.5378 104.49C57.9779 106.006 56.2238 107.399 54.8514 109.05C52.3073 112.135 50.5532 115.402 54.1417 118.951C51.0018 116.871 51.0286 114.144 51.9591 111.271C52.9299 108.28 55.2129 106.047 57.6766 103.937C58.5001 103.232 59.5043 102.639 59.1964 101.381C59.0959 100.976 59.1562 100.435 59.8659 100.371C61.3053 100.224 61.7873 99.1719 62.517 97.6206Z" fill="#9AD0C2"/>
<path d="M19.3486 65.5431C21.558 64.3678 23.7807 63.2513 25.9699 62.0644C26.7264 61.653 27.5633 61.3122 26.4653 60.2663C25.3674 59.2203 26.0569 57.8864 26.3047 56.6818C26.4519 55.9826 27.1013 55.7768 27.8445 55.8944C29.7994 56.2176 31.3058 57.1107 31.7878 58.8325C32.1159 60.0077 31.7878 61.1124 29.9668 60.9596C29.4708 60.9371 28.9756 61.015 28.5194 61.1872C28.0632 61.3594 27.6582 61.6213 27.3357 61.9527C25.1553 63.8395 22.3672 65.0928 19.3486 65.5431Z" fill="#9AD0C2"/>
<path d="M310.557 119.163C313.021 117.87 315.023 116.812 316.998 115.766C317.821 115.314 318.698 114.973 317.487 113.863C316.275 112.752 316.958 111.036 317.667 109.949C318.277 109.021 319.803 109.643 320.814 110.172C322.294 110.942 323.137 112.047 322.822 113.645C322.749 114.015 322.581 114.515 322.153 114.497C318.705 114.309 317.179 117.188 314.46 118.14C313.396 118.511 312.459 119.192 310.557 119.163Z" fill="#9AD0C2"/>
<path d="M197.681 102.163C199.756 101.088 201.858 100.048 203.9 98.9253C204.751 98.4552 205.822 98.1379 204.57 96.8275C203.592 95.8168 204.061 94.2243 204.724 93.055C205.233 92.1618 206.404 92.626 207.228 92.9022C207.995 93.1075 208.676 93.51 209.18 94.0578C209.685 94.6056 209.991 95.2735 210.06 95.9755C210.147 96.9274 209.758 97.7794 208.372 97.6208C206.987 97.4621 206.23 98.1556 205.34 98.8431C203.137 100.53 200.713 101.863 197.681 102.163Z" fill="#9AD0C2"/>
<path d="M88.8149 79.5045C91.0845 78.3293 93.3608 77.1541 95.617 75.9201C96.4472 75.4793 97.0028 75.1268 95.9651 74.1572C94.6864 72.982 95.3358 71.3543 96.0856 70.2554C96.7551 69.3152 98.2146 69.8794 99.2322 70.4082C100.692 71.178 101.575 72.2592 101.294 73.8516C101.194 74.4392 100.779 74.9035 100.149 74.8212C97.9803 74.5333 96.8957 75.9964 95.463 76.919C93.5436 78.2776 91.2509 79.1693 88.8149 79.5045Z" fill="#9AD0C2"/>
<path d="M396.159 82.3663C398.355 81.1911 400.564 80.057 402.74 78.8406C403.45 78.4528 404.079 78.1648 403.135 77.2188C401.977 76.0435 402.466 74.5275 403.135 73.2935C403.604 72.4179 404.815 72.8116 405.626 73.0819C406.389 73.2907 407.066 73.6915 407.573 74.2346C408.08 74.7777 408.395 75.4393 408.478 76.1376C408.591 77.0954 408.163 77.9357 406.804 77.7946C405.445 77.6536 404.675 78.3176 403.778 79.0052C401.582 80.7034 399.198 82.096 396.159 82.3663Z" fill="#9AD0C2"/>
<path d="M410.037 106.964L415.473 104.267C413.539 103.38 411.952 103.615 410.439 103.679C408.658 103.732 408.872 102.927 409.508 102.063C410.807 100.301 412.909 100.794 414.77 100.888C415.955 100.941 417.649 100.812 418.064 101.94C418.479 103.068 417.227 103.938 416.33 104.702C415.513 105.436 414.533 106.016 413.451 106.405C412.368 106.794 411.207 106.985 410.037 106.964Z" fill="#9AD0C2"/>
<path d="M85.6016 120.003C88.2795 119.087 90.4755 118.587 92.1492 117.171C93.9315 115.803 95.1152 113.933 95.4967 111.882C95.6373 110.954 95.7778 109.843 93.8765 110.396C92.9258 110.672 91.9617 110.396 91.935 109.309C91.935 108.398 91.5868 107.217 92.8923 106.823C93.9903 106.488 94.8004 107.223 95.2556 108.057C96.9427 111.177 96.2733 114.215 94.5259 117.101C92.7785 119.986 89.5181 120.191 85.6016 120.003Z" fill="#9AD0C2"/>
<path d="M343.637 114.826C344.588 113.774 345.646 113.545 346.59 113.063C347.534 112.581 348.478 112.476 349.04 111.483C347.587 110.672 346.007 110.948 344.487 110.895C344.012 110.895 343.389 111.042 343.148 110.607C342.907 110.172 343.316 109.626 343.617 109.209C343.815 108.926 344.09 108.692 344.417 108.528C344.745 108.364 345.114 108.275 345.492 108.268C346.322 108.233 347.152 108.174 347.982 108.21C349.448 108.28 351.604 107.975 351.999 109.197C352.481 110.578 350.754 111.747 349.455 112.658C347.754 113.799 345.753 114.545 343.637 114.826Z" fill="#9AD0C2"/>
<path d="M362.844 66.2713C363.174 63.6484 364.453 61.1874 366.493 59.2493C367.578 58.174 369.064 57.886 370.316 58.7792C371.749 59.7958 370.744 61.065 370.175 62.1756C369.975 62.5517 369.573 62.9043 368.984 62.4694C367.049 61.065 365.931 62.3813 364.88 63.5154C364.144 64.4006 363.465 65.3206 362.844 66.2713Z" fill="#9AD0C2"/>
<path d="M226.73 49.0132C226.944 50.0532 227.119 51.0992 227.4 52.1276C227.601 52.868 228.069 53.6729 229.053 53.385C230.171 53.0736 229.375 52.3273 229.201 51.7515C228.919 50.7995 228.116 49.8887 229 48.6899C229.837 50.2354 230.841 51.628 230.399 53.3262C230.058 54.6425 229.335 55.9001 227.54 54.7013C226.509 54.0138 226.315 54.6601 225.84 55.0832C225.602 55.3364 225.286 55.523 224.929 55.6201C224.572 55.7172 224.19 55.7206 223.831 55.6297C222.934 55.3771 222.847 54.6954 222.874 54.0255C222.929 52.9289 222.676 51.8373 222.138 50.8465C222.091 50.7436 222.07 50.633 222.077 50.5224C222.083 50.4117 222.117 50.3036 222.175 50.2054C222.234 50.1072 222.316 50.0212 222.415 49.9534C222.515 49.8856 222.631 49.8374 222.753 49.8123C223.55 49.6595 223.423 50.2824 223.423 50.6702C223.423 51.1756 223.376 51.6927 223.376 52.204C223.376 53.0384 223.45 53.9668 224.648 54.002C225.847 54.0373 226.462 53.1617 226.469 52.0629C226.449 51.0522 225.632 50.1003 226.73 49.0132Z" fill="#9AD0C2"/>
<path d="M89.3974 37.3195C88.5204 38.4947 89.1296 40.6395 87.0207 40.6865C85.9094 40.7159 83.6733 40.0401 83.9344 38.4829C84.1352 37.1608 84.1285 35.0278 86.1972 34.8398C86.5959 34.8049 86.9986 34.8426 87.3799 34.9505C87.7612 35.0584 88.1131 35.2343 88.4135 35.467C88.7138 35.6998 88.9563 35.9845 89.1256 36.3032C89.2949 36.6219 89.3874 36.9679 89.3974 37.3195Z" fill="#9AD0C2"/>
<path d="M241.895 68.0107C243.106 68.8452 245.309 68.7629 245.242 70.3142C245.202 71.56 244.532 73.3639 242.905 73.599C241.921 73.74 239.799 73.123 239.913 71.6364C239.924 70.9421 240.107 70.2582 240.449 69.6321C240.791 69.0061 241.285 68.4528 241.895 68.0107Z" fill="#9AD0C2"/>
<path d="M111.236 97.5679C111.236 98.5551 111.236 99.3307 111.236 100.153C111.236 100.847 111.384 101.581 112.388 101.558C113.392 101.534 113.794 100.929 113.968 100.118C114.189 99.125 113.138 98.179 114.129 96.7041C114.43 98.0262 114.617 98.9605 114.865 99.8889C115.046 100.571 115.468 101.252 116.371 101C117.402 100.706 116.666 100.03 116.492 99.5423C116.217 98.7784 115.749 98.0556 116.217 96.8628C117.062 97.8584 117.574 99.0404 117.697 100.277C117.757 101.076 117.061 102.474 116.653 102.275C114.584 101.252 112.796 103.744 111.203 102.651C109.918 101.763 110.875 99.8478 110.065 98.5375C109.851 98.1379 110.413 97.7853 111.236 97.5679Z" fill="#9AD0C2"/>
<path d="M5.91162 89.1062C11.2274 86.4854 15.2176 82.6424 18.9266 78.0884C18.2571 80.8326 16.9181 83.1536 16.6302 85.7274L16.4628 83.0361C13.1622 85.6217 10.1294 88.1601 5.91162 89.1062Z" fill="#9AD0C2"/>
<path d="M173.331 111.524L176.364 110.072C176.659 109.931 176.933 109.755 176.853 109.408C176.773 109.062 176.357 109.05 176.049 109.032C175.38 108.985 174.71 109.032 174.041 108.968C173.372 108.903 172.508 109.379 172.421 108.521C172.396 108.185 172.504 107.852 172.727 107.579C172.951 107.306 173.276 107.109 173.646 107.023C175.352 106.66 177.136 106.697 178.821 107.128C179.953 107.405 179.491 108.104 179.089 108.674C178.481 109.537 177.635 110.25 176.628 110.749C175.621 111.247 174.487 111.514 173.331 111.524Z" fill="#9AD0C2"/>
<path d="M198.899 79.8805C200.439 78.623 202.066 78.4643 203.151 77.3185C201.999 76.6192 200.901 76.96 199.89 76.8425C199.388 76.7837 198.551 77.1774 198.471 76.4253C198.436 76.1295 198.513 75.8319 198.689 75.5782C198.866 75.3245 199.133 75.1287 199.448 75.0209C201.272 74.4993 203.241 74.5262 205.045 75.0973C206.157 75.4322 205.467 76.0492 205.186 76.4723C203.887 78.3938 201.805 79.3105 198.899 79.8805Z" fill="#9AD0C2"/>
<path d="M52.5956 88.8125C53.64 87.5491 55.5279 87.6372 56.2912 86.3739C55.2735 85.7862 54.1823 85.9625 53.1312 85.9508C52.5755 85.9508 51.8457 86.1212 51.7922 85.3632C51.7722 85.1035 51.8454 84.8448 52.0015 84.6235C52.1576 84.4022 52.3887 84.2293 52.6625 84.1292C54.5103 83.3535 56.4184 83.7002 58.2595 84.1292C59.2101 84.3584 58.7884 85.0752 58.4402 85.5571C57.8063 86.4494 56.9519 87.2054 55.9402 87.7689C54.9285 88.3324 53.7855 88.689 52.5956 88.8125Z" fill="#9AD0C2"/>
<path d="M56.5453 113.804C57.2148 111.923 61.7807 110.948 63.3206 112.329C63.9231 112.869 63.4143 113.292 63.1398 113.68C61.8477 115.561 59.7923 116.413 57.2951 116.677L61.3121 114.562C59.6651 113.504 58.0182 114.197 56.5453 113.804Z" fill="#9AD0C2"/>
<path d="M19.1876 105.183L23.0707 103.262C21.8254 102.457 20.6873 102.604 19.596 102.574C19.1273 102.574 18.5114 102.715 18.257 102.233C18.0026 101.752 18.4445 101.387 18.7792 101.058C19.6897 100.212 24.0146 100.183 24.9921 100.947C25.6616 101.475 25.126 101.91 24.8649 102.286C24.2818 103.157 23.4531 103.88 22.4587 104.388C21.4643 104.895 20.3377 105.169 19.1876 105.183Z" fill="#9AD0C2"/>
<path d="M365.315 85.9156C365.536 86.7441 365.716 87.5844 365.984 88.4012C366.125 88.836 366.506 89.2238 367.076 89.1063C367.745 88.9711 367.604 88.4423 367.43 88.0486C367.007 87.2218 366.881 86.3014 367.069 85.4102C367.892 86.7558 368.535 87.6725 368.348 88.8242C368.22 89.6352 367.765 90.7163 366.761 90.4108C366.312 90.2181 365.807 90.1525 365.314 90.2231C364.821 90.2936 364.365 90.4967 364.009 90.8045C363.914 90.8793 363.802 90.9355 363.68 90.9692C363.559 91.0029 363.43 91.0135 363.303 91.0001C363.177 90.9868 363.055 90.9499 362.945 90.8918C362.836 90.8338 362.742 90.7559 362.67 90.6635C361.86 89.2826 362.041 87.7959 361.76 86.0095C363.099 86.7147 362.637 87.3258 362.617 87.8605C362.617 88.6891 362.57 89.6645 363.835 89.6234C364.96 89.5646 365.174 88.6597 365.047 87.7842C364.98 87.1965 364.926 86.6442 364.866 86.0742L365.315 85.9156Z" fill="#9AD0C2"/>
<path d="M432.632 114.591C432.632 115.238 432.632 115.884 432.632 116.536C432.632 117.189 432.706 117.97 433.77 117.894C434.634 117.829 435.002 117.212 435.016 116.478C435.029 115.743 434.574 114.909 434.962 114.051C435.906 114.785 435.451 115.849 435.886 116.66C436.14 117.124 436.482 117.641 437.225 117.394C437.968 117.147 437.499 116.654 437.372 116.266C437.125 115.531 436.549 114.832 437.118 113.916C438.109 115.408 439.28 117.247 437.553 118.258C436.462 118.893 433.878 119.674 432.78 118.887C431.682 118.099 431.795 116.119 431.929 114.632L432.632 114.591Z" fill="#9AD0C2"/>
<path d="M276.514 106.512C275.69 103.098 279.192 102.757 281.2 101.258C281.763 103.891 280.638 105.107 276.514 106.512Z" fill="#9AD0C2"/>
<path d="M150.535 91.4626C150.637 91.2614 150.645 91.0331 150.556 90.8272C150.466 90.6214 150.288 90.4548 150.06 90.3637C149.243 89.9171 148.052 89.5646 148.962 88.3835C149.431 87.7547 149.531 86.6206 150.709 86.8145C151.72 87.0025 152.979 87.4492 153.173 88.4657C153.29 88.971 153.228 89.4954 152.996 89.969C152.764 90.4425 152.372 90.8427 151.874 91.1159C151.424 91.2783 150.947 91.3755 150.462 91.4038L150.535 91.4626Z" fill="#9AD0C2"/>
<path d="M342.325 102.733C341.655 103.544 341.984 105.183 340.531 105.254C339.687 105.295 337.913 104.766 338.08 103.561C338.221 102.592 338.275 100.964 339.908 100.87C340.206 100.852 340.506 100.886 340.789 100.969C341.073 101.053 341.334 101.186 341.559 101.359C341.784 101.532 341.967 101.743 342.099 101.979C342.23 102.214 342.307 102.471 342.325 102.733Z" fill="#9AD0C2"/>
<path d="M449.745 112.206C450.723 111.03 452.242 111.107 452.999 110.037C451.894 109.074 450.435 109.796 449.143 109.367C449.116 109.159 449.142 108.948 449.22 108.75C449.297 108.551 449.423 108.37 449.59 108.22C449.756 108.069 449.958 107.953 450.182 107.879C450.406 107.805 450.645 107.776 450.883 107.793C452.276 107.751 453.762 107.452 454.987 108.239C455.657 108.656 454.987 109.185 454.706 109.561C453.581 111.03 451.901 111.689 449.745 112.206Z" fill="#9AD0C2"/>
<path d="M55.7018 68.7924C56.1599 66.8529 57.2293 65.0653 58.7881 63.6331C58.9472 63.464 59.1427 63.3241 59.3634 63.2213C59.5841 63.1186 59.8257 63.0551 60.0744 63.0343C60.3231 63.0136 60.574 63.0361 60.8128 63.1005C61.0516 63.1649 61.2736 63.27 61.4661 63.4098C62.457 64.0738 61.8009 64.8671 61.5665 65.5957C61.4527 65.9483 61.1046 66.3596 60.6761 66.1833C57.7103 64.8788 57.409 67.5231 55.7018 68.7924Z" fill="#9AD0C2"/>
<path d="M264.282 93.0845C264.731 93.9659 265.079 94.5418 265.32 95.1588C265.472 95.5003 265.541 95.866 265.522 96.2323C265.504 96.5986 265.398 96.9575 265.213 97.2859C264.898 97.8207 260.386 98.7256 259.857 98.3554C259.657 98.2218 259.512 98.0356 259.442 97.824C259.372 97.6124 259.381 97.3867 259.469 97.1801C259.736 96.4926 260.071 97.1802 260.379 97.2154C261.718 97.4094 262.193 96.7453 262.187 95.7052C262.187 95.0588 262.093 94.4125 262.033 93.6016C262.997 94.295 262.756 95.1705 263.03 95.8815C263.224 96.3928 263.506 96.8981 264.229 96.763C265.219 96.5749 264.657 95.9403 264.496 95.5524C264.072 94.7832 263.995 93.9013 264.282 93.0845Z" fill="#9AD0C2"/>
<path d="M474.396 109.15C475.333 109.567 476.478 109.667 476.404 110.707C476.337 111.53 476.223 112.676 475.065 112.752C474.396 112.793 473.057 112.411 473.184 111.395C473.251 110.539 473.684 109.737 474.396 109.15Z" fill="#9AD0C2"/>
<path d="M219.493 48.0438L230.144 44.5181L230.372 45L219.76 48.6314L219.493 48.0438Z" fill="#9AD0C2"/>
<path d="M308.589 98.0731C307.92 98.7548 308.087 100.03 306.748 99.8772C306.025 99.7949 304.974 99.4364 305.349 98.4551C305.596 97.8087 305.463 96.6452 306.822 96.845C307.224 96.8654 307.61 96.9942 307.926 97.214C308.243 97.4338 308.474 97.7338 308.589 98.0731Z" fill="#9AD0C2"/>
<path d="M73.2694 106.2C73.2694 106.988 72.4593 107.264 71.9304 107.652C68.9177 109.72 67.1569 112.264 67.7795 115.767C66.6012 112.576 67.6256 109.802 70.819 107.675C71.5756 107.14 72.4392 106.688 73.2694 106.2Z" fill="#9AD0C2"/>
<path d="M50.6538 99.1899C51.8722 100.259 52.1066 101.582 51.3233 102.128C50.8293 102.449 50.2593 102.669 49.6555 102.771C49.0517 102.873 48.4296 102.854 47.8352 102.716C46.4962 102.287 47.621 100.782 46.9247 99.8598C48.1833 100.277 46.6837 102.287 48.5582 101.922C49.7299 101.723 52.4078 101.811 50.6538 99.1899Z" fill="#9AD0C2"/>
<path d="M276.728 56.8052C277.397 57.2165 278.589 57.24 278.341 58.233C278.181 58.8677 278.147 59.9078 277.17 59.9196C276.5 59.9196 275.416 59.5905 275.603 58.5798C275.737 57.9099 275.851 57.146 276.728 56.8052Z" fill="#9AD0C2"/>
<path d="M449.705 101.569C453.916 102.486 457.477 103.103 461.427 103.027C457.444 103.717 453.312 103.204 449.705 101.569Z" fill="#9AD0C2"/>
<path d="M117.489 93.4192L108.063 96.61L107.835 96.0811L117.309 92.9902L117.489 93.4192Z" fill="#9AD0C2"/>
<path d="M239.725 111.001C241.412 108.65 243.541 107.316 247.09 106.3C244.512 107.71 241.901 109.097 239.725 111.001Z" fill="#9AD0C2"/>
<path d="M192.586 110.983C194.454 109.091 195.867 108.821 201.075 109.338C199.616 109.414 198.15 109.42 196.71 109.591C195.243 109.808 193.841 110.281 192.586 110.983Z" fill="#9AD0C2"/>
<path d="M450.756 72.2533C451.425 72.4824 451.994 72.7762 451.8 73.499C451.653 74.0337 451.599 74.78 450.682 74.5861C450.133 74.4744 449.29 74.2687 449.691 73.4461C449.926 72.9819 449.812 72.2239 450.756 72.2533Z" fill="#9AD0C2"/>
</g>
<defs>
<clipPath id="clip0_2594_106232">
<rect width="496" height="123" fill="white"/>
</clipPath>
</defs>
</svg>
