<svg width="460" height="57" viewBox="0 0 460 57" fill="none" xmlns="http://www.w3.org/2000/svg">
<rect width="335" height="24" fill="#265073"/>
<rect x="335" width="125" height="24" fill="#2D9596"/>
<path d="M163.011 14.3345C157.299 15.521 148.282 29.957 153.745 35.7337C156.768 38.9297 161.861 38.3048 169.185 38.7778C166.914 35.8279 159.513 31.7685 165.914 28.0898C168.503 38.4625 176.143 41.4739 189.267 39.0278C204.622 36.1645 224.485 27.7936 242.434 26.9533C222.095 23.1842 198.382 30.8166 181.827 37.1798C174.195 31.5377 176.42 11.5462 163.011 14.3345Z" fill="#265073"/>
<path d="M98.3535 17.0459C90.648 22.4765 78.8331 26.5417 84.7963 35.9317C69.7431 34.4472 54.986 26.5609 40 23.613C55.734 35.0048 71.7949 39.272 88.0443 39.497C88.2751 42.1084 92.6537 44.9121 94.4998 47.6024C109.724 46.4967 110.017 23.7399 98.3516 17.0459H98.3535ZM88.6327 26.8398C91.4999 24.6379 94.246 25.0456 96.8863 27.7109C96.617 29.8127 94.7133 31.8376 92.2134 33.8356C89.8038 31.4473 88.4847 29.1108 88.6327 26.8417V26.8398ZM93.5614 36.3375C95.4152 34.9067 97.2247 34.4779 99.117 32.2049C100.353 36.0009 101.234 39.7816 98.1131 43.3776C96.819 41.0411 94.621 38.6624 93.5633 36.3394L93.5614 36.3375Z" fill="#265073"/>
<path d="M143.869 36.7757C143.563 32.8739 141.858 29.3318 138.754 26.1453C136.342 23.6974 132.902 21.3032 128.437 18.9552C124.754 17.2226 121.078 15.4881 117.414 13.7554C115.336 12.7689 113.991 12.0074 113.386 11.469C112.778 10.9325 112.315 10.5075 111.993 10.196C111.743 10.0383 111.047 10.0037 109.903 10.0921C108.84 10.1748 108.107 10.3229 107.707 10.5306C108.613 11.7074 109.199 12.3766 109.47 12.5324L121.014 18.7033C126.276 21.5821 130.272 24.2704 133.006 26.7703C136.746 30.224 138.762 33.8027 139.052 37.5064C139.35 41.3101 138.165 44.7812 135.498 47.9234C132.831 51.0655 129.597 52.7885 125.793 53.0866C124.295 53.2039 122.656 52.7674 120.874 51.7771C119.776 51.1694 118.599 50.0829 117.347 48.5156C115.653 46.3888 114.445 43.3716 113.722 39.4621C113.326 36.1834 112.92 32.8951 112.503 29.5971C112.124 26.7915 111.684 24.7166 111.182 23.3685C111.093 23.2378 111.026 23.1339 110.978 23.0589L110.663 23.2032L111.703 36.4719C112.263 43.6043 113.757 48.2541 116.186 50.4233C117.997 52.0463 119.783 53.1328 121.541 53.6904C123.299 54.2462 125.42 54.427 127.902 54.2327C132.433 53.877 136.292 52.029 139.479 48.6849C142.756 45.2369 144.221 41.2659 143.869 36.7738V36.7757Z" fill="#265073"/>
<path d="M114.432 22.7265C114.236 22.7419 113.941 22.7765 113.551 22.8304C113.161 22.8842 112.874 22.9169 112.693 22.9323C113.949 24.3995 114.68 25.3072 114.889 25.6553C115.38 26.4841 115.691 26.9764 115.826 27.1321C117.364 27.361 118.451 27.4513 119.085 27.4014C119.266 27.3879 119.422 27.3456 119.555 27.2744C119.262 26.8552 118.882 26.3533 118.41 25.7687C117.855 25.0822 117.307 24.3957 116.766 23.7092C116.041 22.99 115.264 22.665 114.432 22.7304V22.7265Z" fill="#265073"/>
<path d="M157.257 52.4506C154.351 48.0604 151.796 43.2605 149.413 38.2569C148.367 37.9396 147.525 37.3819 146.204 37.3858C148.265 42.6009 150.996 47.0354 153.601 51.6141C154.657 51.9237 156.182 52.9717 157.257 52.4486V52.4506Z" fill="#265073"/>
<path d="M151.401 37.8779C153.224 43.4546 156.115 47.7814 158.816 52.3293C159.845 52.512 161.241 53.5427 162.232 52.96C159.341 48.5525 156.918 43.595 154.388 38.7664C153.413 38.4433 152.555 37.9875 151.401 37.8779Z" fill="#265073"/>
<path d="M185.7 30.9643C182.794 26.5741 180.237 21.7743 177.856 16.7726C176.808 16.4553 175.968 15.8976 174.647 15.9034C176.708 21.1185 179.439 25.553 182.045 30.1317C183.1 30.4413 184.623 31.4893 185.7 30.9662V30.9643Z" fill="#265073"/>
<path d="M190.677 31.4723C187.785 27.0648 185.364 22.1073 182.833 17.2805C181.858 16.9575 181 16.5017 179.845 16.3921C181.668 21.9688 184.558 26.2956 187.26 30.8435C188.287 31.0281 189.685 32.0569 190.675 31.4723H190.677Z" fill="#265073"/>
<path d="M139.019 16.0186C139.61 14.461 138.262 13.5956 137.187 13.2533C139.673 12.0841 137.992 9.72653 135.329 10.1669C133.97 10.3938 132.725 11.6995 131.666 11.5322C131.673 11.638 131.683 11.7457 131.691 11.8534C133.346 12.861 134.985 11.3111 136.352 10.8419C137.698 13.4437 133.254 12.7745 132.066 13.8706C132.843 15.1225 134.969 13.4764 136.258 13.7571C136.812 13.8783 137.492 14.561 137.446 15.1725C137.323 16.8147 134.51 15.8167 133.016 16.382C133.17 17.0436 133.752 17.6782 134.616 17.5493C134.921 17.5032 135.171 17.0609 135.537 16.9397C136.689 16.559 138.585 16.9763 139.019 16.0205V16.0186Z" fill="#265073"/>
<path d="M132.947 19.9879C131.533 16.9015 129.987 13.9727 128.604 10.8498C128.312 10.7786 128.143 10.5613 127.758 10.5979C127.762 10.6402 127.764 10.6825 127.768 10.7248C129.168 13.6881 130.543 16.6822 131.906 19.6879C132.233 19.811 132.57 19.9225 132.948 19.9879H132.947Z" fill="#265073"/>
<path d="M131.8 32.5566C132.389 30.999 131.043 30.1336 129.968 29.7913C132.456 28.6221 130.773 26.2626 128.11 26.7049C126.749 26.9318 125.506 28.2375 124.447 28.0702C124.454 28.176 124.464 28.2837 124.472 28.3914C126.127 29.399 127.766 27.8491 129.131 27.3799C130.477 29.9836 126.033 29.3106 124.845 30.4086C125.622 31.6605 127.749 30.0144 129.037 30.2952C129.591 30.4163 130.27 31.099 130.225 31.7086C130.102 33.3508 127.289 32.3528 125.797 32.9181C125.951 33.5796 126.533 34.2142 127.397 34.0854C127.701 34.0412 127.952 33.5969 128.318 33.4739C129.468 33.0931 131.366 33.5104 131.8 32.5547V32.5566Z" fill="#265073"/>
<path d="M120.547 27.2643C121.947 30.2257 123.322 33.2198 124.685 36.2254C125.012 36.3485 125.349 36.4601 125.726 36.5254C124.312 33.439 122.766 30.5084 121.383 27.3873C121.091 27.3162 120.924 27.0989 120.537 27.1373C120.541 27.1796 120.543 27.222 120.547 27.2643Z" fill="#265073"/>
<path d="M67.6218 28.999C67.6257 29.0586 67.6314 29.1182 67.6353 29.1797C69.8237 31.0066 78.8079 34.0296 81.9578 31.3239C82.2117 29.0336 81.4521 27.1971 79.9387 26.401C76.6465 24.6684 72.487 27.101 71.1044 29.4528C69.8852 29.6086 68.041 27.8779 67.6218 29.0009V28.999ZM76.8869 26.8202C78.058 27.599 79.3252 29.1509 79.031 31.0066C77.4599 31.7604 75.8446 30.9547 74.6466 30.6239C75.0062 29.0259 75.8677 27.8529 76.8888 26.8183L76.8869 26.8202Z" fill="#265073"/>
<path d="M111.176 46.2118C107.884 44.4792 103.725 46.9099 102.342 49.2636C101.121 49.4194 99.2786 47.6887 98.8594 48.8117C98.8632 48.8713 98.869 48.9328 98.8728 48.9925C101.061 50.8193 110.045 53.8423 113.195 51.1366C113.451 48.8444 112.69 47.0098 111.176 46.2137V46.2118ZM105.882 50.4366C106.242 48.8386 107.103 47.6675 108.124 46.631C109.296 47.4098 110.563 48.9617 110.267 50.8193C108.697 51.5712 107.08 50.7655 105.882 50.4366Z" fill="#265073"/>
<path d="M84.3984 20.1321C83.6715 20.2244 82.5715 19.1937 82.3215 19.8629C82.3235 19.8994 82.3273 19.934 82.3292 19.9706C83.6349 21.0609 88.9924 22.8627 90.8712 21.2493C91.0231 19.8821 90.5693 18.7879 89.6674 18.3129C87.7021 17.2803 85.2214 18.7302 84.3984 20.134V20.1321ZM87.8482 18.5629C88.5463 19.0283 89.302 19.9532 89.127 21.0609C88.1905 21.509 87.2271 21.0282 86.5118 20.8321C86.7271 19.8782 87.2406 19.1802 87.8482 18.5629Z" fill="#265073"/>
<path d="M143.177 46.5406C143.177 46.5656 143.181 46.5887 143.182 46.6118C144.057 47.3425 147.653 48.554 148.915 47.4694C149.017 46.5522 148.713 45.8176 148.105 45.4984C146.788 44.8061 145.123 45.7791 144.569 46.7195C144.081 46.781 143.342 46.0887 143.175 46.5387L143.177 46.5406ZM146.884 45.6695C147.353 45.981 147.861 46.6022 147.742 47.3444C147.115 47.6464 146.467 47.3233 145.988 47.1925C146.132 46.5522 146.477 46.0849 146.884 45.6695Z" fill="#265073"/>
<path d="M143.435 30.1086C143.436 30.1412 143.44 30.1739 143.442 30.2047C144.619 31.1874 149.45 32.8142 151.144 31.3585C151.282 30.1259 150.873 29.1394 150.059 28.7105C148.288 27.7779 146.052 29.0855 145.308 30.3509C144.652 30.4335 143.66 29.5047 143.435 30.1066V30.1086ZM148.417 28.9374C149.048 29.3567 149.729 30.1912 149.569 31.1893C148.725 31.595 147.856 31.1604 147.211 30.9854C147.406 30.1259 147.867 29.4951 148.417 28.9394V28.9374Z" fill="#265073"/>
<path d="M196.902 27.2839C196.015 27.3974 194.675 26.1397 194.369 26.9551C194.373 26.9993 194.377 27.0435 194.379 27.0858C195.969 28.4146 202.5 30.6126 204.792 28.6454C204.976 26.9782 204.425 25.6455 203.323 25.0667C200.93 23.8071 197.906 25.5744 196.902 27.2858V27.2839ZM201.105 25.3705C201.957 25.9378 202.878 27.0666 202.665 28.4146C201.523 28.9608 200.348 28.3762 199.477 28.1377C199.74 26.9762 200.365 26.1243 201.105 25.3705Z" fill="#265073"/>
<path d="M159.615 46.6426C159.615 46.6657 159.619 46.6849 159.621 46.708C160.405 47.3618 163.626 48.4464 164.755 47.4753C164.845 46.6541 164.572 45.9965 164.03 45.7119C162.849 45.0907 161.359 45.9618 160.863 46.806C160.424 46.8618 159.765 46.2407 159.615 46.6426ZM162.936 45.8619C163.355 46.1407 163.811 46.6984 163.705 47.3618C163.142 47.631 162.563 47.3426 162.134 47.2253C162.263 46.6522 162.572 46.2311 162.938 45.8619H162.936Z" fill="#265073"/>
<path d="M62.0781 25.0743C62.43 26.2858 63.7953 26.8185 64.6838 27.6704C68.4855 24.9474 73.5392 21.4245 79.4755 22.5398C80.8774 22.8033 82.5696 24.2378 83.9773 23.4302C77.191 18.1977 65.8876 19.7457 62.0762 25.0743H62.0781Z" fill="#265073"/>
<path d="M118.272 10.9129C118.601 12.0436 119.874 12.5397 120.703 13.3359C124.249 10.7956 128.964 7.50723 134.504 8.5495C135.812 8.79564 137.389 10.1341 138.706 9.38216C132.373 4.50158 121.828 5.94383 118.272 10.9148V10.9129Z" fill="#265073"/>
<path d="M165.814 44.9063C166.143 46.0371 167.418 46.5332 168.245 47.3274C171.791 44.7871 176.506 41.5007 182.047 42.5411C183.354 42.7872 184.933 44.1256 186.248 43.3718C179.916 38.4912 169.372 39.9354 165.814 44.9044V44.9063Z" fill="#265073"/>
<path d="M151.503 52.4428C151.169 49.8832 147.321 50.1448 144.858 49.7236C145.681 51.039 147.823 50.4986 147.913 52.2716C148.138 56.7426 136.483 52.1235 135.466 53.4446C138.24 53.9427 142.817 55.7696 146.657 55.583C149.198 55.46 151.776 54.5273 151.505 52.4447L151.503 52.4428Z" fill="#265073"/>
<path d="M161.361 10.921C159.857 14.4881 152.513 6.51536 151.227 7.16149C153.201 8.5922 156.08 11.7325 159.14 13.0286C161.165 13.8862 163.524 14.1266 164.093 12.4036C164.793 10.2844 161.699 9.04219 159.938 7.79031C160.084 9.12488 161.957 9.50755 161.361 10.921Z" fill="#265073"/>
<path d="M185.706 20.3536C187.152 21.4017 189.26 23.7016 191.502 24.6515C192.987 25.2784 194.711 25.4573 195.131 24.1939C195.644 22.642 193.377 21.7324 192.087 20.8152C192.194 21.792 193.565 22.0728 193.129 23.1093C192.029 25.7207 186.65 19.8825 185.708 20.3556L185.706 20.3536Z" fill="#265073"/>
<path d="M91.2113 46.7288C91.9113 44.6097 88.8172 43.3693 87.0557 42.1155C87.2018 43.4501 89.0748 43.8328 88.4787 45.2481C86.9768 48.8153 79.631 40.8425 78.3445 41.4886C80.3194 42.9194 83.1981 46.0596 86.2576 47.3557C88.2826 48.2134 90.6421 48.4557 91.2113 46.7307V46.7288Z" fill="#265073"/>
<path d="M105.757 15.2537C105.975 14.6556 106.701 14.471 106.673 13.673C105.482 12.6826 103.455 13.9634 103.43 14.9537C103.367 17.5324 109.171 17.0921 111.005 17.6786C107.644 17.8401 102.294 22.7226 107.55 23.438C108.399 22.9092 109.278 21.7823 108.474 20.6419C109.986 19.3824 111.878 18.4305 114.117 17.7613C112.324 15.6979 107.392 17.5036 105.753 15.2518L105.757 15.2537Z" fill="#265073"/>
<path d="M150.409 20.8091C152.292 19.2418 154.648 18.0553 157.436 17.2227C155.205 14.6535 149.063 16.9015 147.023 14.0978C147.296 13.3536 148.198 13.1228 148.165 12.1306C146.683 10.8998 144.16 12.4921 144.127 13.7267C144.046 16.9361 151.273 16.3881 153.557 17.1208C149.371 17.3227 142.712 23.4013 149.257 24.2916C150.317 23.634 151.409 22.2302 150.409 20.8091Z" fill="#265073"/>
<path d="M120.095 35.5833C120.528 34.4006 121.962 34.0314 121.908 32.4546C119.553 30.4969 115.539 33.0295 115.489 34.9929C115.361 40.0947 126.849 39.2255 130.483 40.387C123.827 40.7081 113.241 50.3693 123.645 51.7865C125.329 50.7423 127.064 48.5078 125.477 46.2521C128.47 43.7599 132.214 41.8773 136.646 40.5504C133.1 36.466 123.337 40.0408 120.095 35.5852V35.5833Z" fill="#265073"/>
<path d="M55.2072 23.1934C54.8592 23.103 54.3227 22.9876 53.5977 22.8511C53.2823 22.9799 52.9919 23.353 52.7285 23.9664C52.6035 24.2587 52.4458 24.7318 52.2593 25.3837C53.6458 25.826 54.7226 26.1336 55.4957 26.3106L56.661 23.8587C56.4053 23.6107 55.9188 23.3895 55.2053 23.1934H55.2072Z" fill="#265073"/>
<path d="M60.5357 27.126L61.701 24.6722C61.4453 24.4242 60.9588 24.203 60.2453 24.0069C59.8973 23.9146 59.3607 23.8011 58.6358 23.6665C58.3185 23.7953 58.03 24.1665 57.7647 24.7818C57.6397 25.0741 57.4839 25.5453 57.2974 26.1991C58.6838 26.6395 59.7607 26.9491 60.5338 27.126H60.5357Z" fill="#265073"/>
<path d="M75.9678 40.312C75.6197 40.2217 75.0832 40.1063 74.3582 39.9717C74.0428 40.1005 73.7525 40.4717 73.489 41.087C73.364 41.3793 73.2083 41.8524 73.0217 42.5043C74.4082 42.9446 75.487 43.2542 76.2581 43.4312L77.4254 40.9774C77.1677 40.7313 76.6831 40.5082 75.9697 40.3101L75.9678 40.312Z" fill="#265073"/>
<path d="M71.02 38.897C70.6719 38.8047 70.1354 38.6912 69.4104 38.5547C69.0951 38.6835 68.8028 39.0547 68.5412 39.67C68.4162 39.9623 68.2605 40.4354 68.072 41.0873C69.4585 41.5276 70.5373 41.8373 71.3084 42.0142L72.4738 39.5623C72.218 39.3162 71.7315 39.0931 71.0181 38.897H71.02Z" fill="#265073"/>
<path d="M66.3625 37.168C66.0145 37.0757 65.4779 36.9622 64.753 36.8257C64.4376 36.9545 64.1472 37.3257 63.8838 37.941C63.7588 38.2333 63.6011 38.7045 63.4146 39.3583C64.801 39.7986 65.8779 40.1082 66.651 40.2852L67.8163 37.8314C67.5605 37.5833 67.074 37.3622 66.3606 37.1661L66.3625 37.168Z" fill="#265073"/>
<path d="M94.4498 19.1572L95.6171 16.7035C95.3594 16.4573 94.8748 16.2342 94.1614 16.0381C93.8133 15.9477 93.2768 15.8323 92.5537 15.6958C92.2364 15.8246 91.9461 16.1977 91.6826 16.8111C91.5576 17.1034 91.3999 17.5765 91.2153 18.2284C92.6018 18.6707 93.6806 18.9784 94.4517 19.1553L94.4498 19.1572Z" fill="#265073"/>
<path d="M101.279 16.8169L102.444 14.3651C102.188 14.117 101.702 13.8959 100.988 13.6997C100.64 13.6094 100.104 13.494 99.3787 13.3594C99.0633 13.4882 98.771 13.8594 98.5075 14.4747C98.3825 14.767 98.2268 15.2381 98.0383 15.892C99.4248 16.3323 100.504 16.6419 101.275 16.8189L101.279 16.8169Z" fill="#265073"/>
<path d="M106.309 42.6273C107.696 43.0696 108.774 43.3773 109.545 43.5542L110.713 41.1005C110.455 40.8543 109.97 40.6312 109.257 40.4351C108.907 40.3428 108.372 40.2293 107.647 40.0947C107.332 40.2236 107.04 40.5947 106.776 41.2101C106.651 41.5024 106.496 41.9735 106.309 42.6273Z" fill="#265073"/>
<path d="M106.674 38.0604C108.061 38.5008 109.14 38.8104 109.911 38.9873L111.076 36.5355C110.818 36.2893 110.334 36.0663 109.62 35.8701C109.27 35.7778 108.736 35.6644 108.011 35.5278C107.693 35.6567 107.403 36.0278 107.14 36.6432C107.015 36.9355 106.859 37.4085 106.672 38.0604H106.674Z" fill="#265073"/>
<path d="M115.403 51.8945C115.053 51.8022 114.517 51.6888 113.794 51.5522C113.478 51.6811 113.188 52.0522 112.924 52.6676C112.799 52.9599 112.644 53.4329 112.457 54.0848C113.844 54.5252 114.922 54.8348 115.693 55.0117L116.861 52.558C116.603 52.3118 116.118 52.0888 115.405 51.8926L115.403 51.8945Z" fill="#265073"/>
<path d="M135.037 53.8828C134.687 53.7905 134.15 53.6771 133.427 53.5405C133.112 53.6694 132.82 54.0405 132.556 54.6559C132.429 54.9482 132.273 55.4212 132.089 56.0731C133.475 56.5135 134.554 56.8231 135.325 57L136.491 54.5463C136.233 54.3001 135.748 54.079 135.037 53.8809V53.8828Z" fill="#265073"/>
<path d="M140.25 50.525C140.125 50.8173 139.967 51.2903 139.783 51.9422C141.169 52.3826 142.246 52.6922 143.019 52.8691L144.186 50.4154C143.929 50.1692 143.444 49.9462 142.731 49.75C142.383 49.6577 141.846 49.5442 141.123 49.4077C140.808 49.5366 140.515 49.9077 140.252 50.5231L140.25 50.525Z" fill="#265073"/>
<path d="M138.685 20.9976L139.852 18.5438C139.594 18.2957 139.11 18.0746 138.396 17.8785C138.046 17.7881 137.51 17.6727 136.787 17.5381C136.471 17.6669 136.179 18.0381 135.916 18.6534C135.791 18.9457 135.635 19.4169 135.448 20.0707C136.835 20.511 137.912 20.8207 138.685 20.9976Z" fill="#265073"/>
<path d="M142.927 23.4512C142.579 23.3589 142.042 23.2454 141.319 23.1089C141.002 23.2377 140.713 23.6089 140.45 24.2242C140.325 24.5165 140.167 24.9896 139.983 25.6415C141.369 26.0818 142.446 26.3915 143.219 26.5684L144.386 24.1146C144.129 23.8685 143.644 23.6454 142.931 23.4493L142.927 23.4512Z" fill="#265073"/>
<path d="M146.167 18.0497C145.911 17.8016 145.425 17.5805 144.711 17.3843C144.363 17.2939 143.827 17.1786 143.102 17.0439C142.786 17.1728 142.496 17.5439 142.233 18.1593C142.108 18.4516 141.95 18.9227 141.765 19.5765C143.15 20.0169 144.229 20.3265 145.002 20.5034L146.167 18.0497Z" fill="#265073"/>
<path d="M143.146 8.83253C142.796 8.74022 142.262 8.62677 141.537 8.49023C141.221 8.61908 140.929 8.99214 140.666 9.60558C140.541 9.89787 140.385 10.3709 140.198 11.0228C141.585 11.4632 142.664 11.7728 143.435 11.9497L144.6 9.49789C144.342 9.24982 143.858 9.02867 143.144 8.83253H143.146Z" fill="#265073"/>
<path d="M165.76 48.7388C165.41 48.6465 164.876 48.533 164.151 48.3965C163.836 48.5253 163.543 48.8965 163.28 49.5118C163.155 49.8041 162.999 50.2772 162.812 50.9291C164.199 51.3694 165.278 51.679 166.049 51.856L167.216 49.4022C166.958 49.1561 166.474 48.933 165.76 48.7369V48.7388Z" fill="#265073"/>
<path d="M172.654 46.7041C172.306 46.6138 171.77 46.4984 171.047 46.3638C170.731 46.4926 170.441 46.8638 170.177 47.4791C170.052 47.7714 169.895 48.2445 169.71 48.8983C171.097 49.3387 172.174 49.6483 172.947 49.8252L174.114 47.3733C173.856 47.1253 173.372 46.9041 172.658 46.7061L172.654 46.7041Z" fill="#265073"/>
<path d="M176.412 45.1851C176.287 45.4774 176.129 45.9505 175.943 46.6024C177.329 47.0428 178.406 47.3524 179.179 47.5293L180.345 45.0755C180.089 44.8294 179.602 44.6063 178.889 44.4102C178.541 44.3179 178.004 44.2044 177.279 44.0679C176.962 44.1967 176.674 44.5679 176.41 45.1832L176.412 45.1851Z" fill="#265073"/>
<path d="M187.142 40.5411C187.017 40.8334 186.862 41.3065 186.675 41.9584C188.062 42.4007 189.14 42.7083 189.911 42.8853L191.079 40.4334C190.821 40.1854 190.336 39.9642 189.623 39.7681C189.273 39.6777 188.738 39.5623 188.013 39.4258C187.698 39.5546 187.406 39.9277 187.142 40.5411Z" fill="#265073"/>
<path d="M205.913 26.2183C205.788 26.5106 205.63 26.9837 205.444 27.6356C206.83 28.076 207.909 28.3856 208.68 28.5625L209.847 26.1087C209.59 25.8626 209.105 25.6395 208.392 25.4434C208.044 25.3511 207.507 25.2376 206.782 25.1011C206.465 25.2299 206.176 25.6011 205.913 26.2164V26.2183Z" fill="#265073"/>
<path d="M170.497 13.2555C170.372 13.5478 170.216 14.0208 170.028 14.6727C171.414 15.1131 172.493 15.4246 173.264 15.5996L174.429 13.1478C174.174 12.8997 173.687 12.6786 172.974 12.4805C172.626 12.3901 172.089 12.2747 171.364 12.1401C171.049 12.269 170.758 12.6401 170.493 13.2555H170.497Z" fill="#265073"/>
<path d="M165.774 10.6803C165.649 10.9726 165.491 11.4437 165.307 12.0975C166.691 12.5398 167.77 12.8475 168.543 13.0244L169.708 10.5726C169.453 10.3245 168.966 10.1034 168.253 9.90724C167.905 9.81493 167.368 9.70147 166.645 9.56494C166.328 9.69378 166.039 10.0649 165.776 10.6803H165.774Z" fill="#265073"/>
<path d="M155.844 7.11534C155.719 7.40764 155.563 7.8807 155.376 8.53452C156.763 8.97489 157.84 9.28449 158.613 9.46141L159.78 7.00765C159.522 6.76151 159.038 6.53844 158.324 6.34037C157.974 6.24999 157.44 6.13461 156.715 6C156.399 6.12884 156.109 6.49998 155.844 7.11534Z" fill="#265073"/>
<path d="M153.548 11.0591C153.2 10.9668 152.663 10.8533 151.94 10.7168C151.623 10.8456 151.334 11.2168 151.071 11.8321C150.946 12.1244 150.788 12.5975 150.604 13.2494C151.988 13.6917 153.067 13.9994 153.84 14.1763L155.005 11.7244C154.75 11.4764 154.263 11.2552 153.55 11.0591H153.548Z" fill="#265073"/>
<path d="M146.059 35.5545C147.446 35.9949 148.525 36.3045 149.296 36.4814L150.461 34.0277C150.203 33.7815 149.719 33.5585 149.005 33.3623C148.655 33.2719 148.121 33.1566 147.396 33.02C147.078 33.1489 146.788 33.52 146.525 34.1354C146.4 34.4277 146.244 34.9007 146.057 35.5526L146.059 35.5545Z" fill="#265073"/>
<path d="M135.616 33.8316C135.268 33.7392 134.731 33.6258 134.006 33.4893C133.689 33.6181 133.398 33.9892 133.135 34.6046C133.01 34.8969 132.852 35.37 132.668 36.0219C134.054 36.4622 135.133 36.7718 135.904 36.9487L137.069 34.495C136.814 34.2488 136.327 34.0258 135.614 33.8296L135.616 33.8316Z" fill="#265073"/>
<path d="M129.145 47.3622C130.531 47.8026 131.61 48.1122 132.381 48.2891L133.548 45.8373C133.291 45.5892 132.806 45.3681 132.093 45.1719C131.743 45.0815 131.206 44.9662 130.483 44.8315C130.168 44.9604 129.876 45.3334 129.612 45.9469C129.487 46.2392 129.331 46.7122 129.145 47.3641V47.3622Z" fill="#265073"/>
<path d="M121.887 24.1954C121.762 24.4877 121.605 24.9608 121.418 25.6127C122.804 26.053 123.881 26.3626 124.654 26.5396L125.82 24.0877C125.564 23.8416 125.077 23.6185 124.364 23.4224C124.016 23.3301 123.479 23.2166 122.754 23.0801C122.437 23.2089 122.149 23.5801 121.885 24.1954H121.887Z" fill="#265073"/>
<path d="M116.805 21.0609C118.191 21.5013 119.268 21.8109 120.041 21.9878L121.206 19.536C120.951 19.2879 120.464 19.0668 119.751 18.8706C119.403 18.7803 118.866 18.6649 118.141 18.5303C117.826 18.6591 117.535 19.0303 117.27 19.6456C117.145 19.9379 116.989 20.409 116.803 21.0629L116.805 21.0609Z" fill="#265073"/>
<path d="M116.966 11.5918L118.134 9.13998C117.876 8.89383 117.391 8.67077 116.678 8.47462C116.33 8.38424 115.793 8.26886 115.068 8.13232C114.753 8.26117 114.463 8.63423 114.199 9.24767C114.074 9.53996 113.917 10.013 113.73 10.6649C115.116 11.1053 116.193 11.4149 116.966 11.5918Z" fill="#265073"/>
<path d="M126.398 13.188C126.05 13.0957 125.514 12.9822 124.791 12.8457C124.473 12.9745 124.183 13.3457 123.922 13.961C123.797 14.2533 123.639 14.7245 123.452 15.3783C124.839 15.8206 125.916 16.1283 126.689 16.3052L127.854 13.8534C127.598 13.6053 127.112 13.3841 126.398 13.188Z" fill="#265073"/>
</svg>
