<svg width="38" height="41" viewBox="0 0 38 41" fill="none" xmlns="http://www.w3.org/2000/svg">
<path d="M19.712 40.4999C19.1279 40.5002 18.5485 40.3955 18.0015 40.1908L5.93561 35.7292C5.83528 35.6953 5.74312 35.6408 5.66499 35.5693C5.58686 35.4978 5.52448 35.4108 5.48182 35.3139C5.43917 35.217 5.41716 35.1122 5.41724 35.0063C5.41731 34.9004 5.43945 34.7957 5.48223 34.6988C5.51614 34.5984 5.57057 34.5063 5.64207 34.4281C5.71357 34.35 5.80056 34.2876 5.8975 34.245C5.99444 34.2023 6.09922 34.1804 6.20513 34.1804C6.31103 34.1805 6.41575 34.2026 6.51263 34.2454L18.5683 38.707C19.3961 39.0049 20.3065 38.9754 21.1133 38.6246L28.3261 35.5334C28.7118 35.3783 29.0622 35.147 29.3565 34.8534L34.0035 30.0723C34.0462 30.0303 34.0758 29.9767 34.0886 29.9182C34.1014 29.8596 34.0969 29.7986 34.0757 29.7426C34.0564 29.6847 34.0209 29.6336 33.9734 29.5952C33.9259 29.5569 33.8684 29.5329 33.8078 29.5262C32.7865 29.4286 31.7565 29.5632 30.7947 29.9201C29.8329 30.277 28.9643 30.8468 28.254 31.587L27.0381 32.8441C26.9224 32.9517 26.7802 33.0264 26.6259 33.0605L22.5044 33.8436C22.4042 33.8625 22.3013 33.8615 22.2016 33.8407C22.1018 33.8199 22.0071 33.7796 21.9229 33.7222C21.7529 33.6063 21.6359 33.4276 21.5976 33.2253C21.5594 33.0231 21.603 32.814 21.7189 32.6439C21.8349 32.4739 22.0136 32.3568 22.2158 32.3186L26.0592 31.587L27.0896 30.5051C27.964 29.6071 29.0293 28.9176 30.2066 28.4877C31.3839 28.0578 32.6429 27.8986 33.8902 28.0218C34.2398 28.0573 34.5723 28.1904 34.85 28.4057C35.1276 28.621 35.3392 28.91 35.4605 29.2398C35.5819 29.5695 35.6082 29.9267 35.5364 30.2707C35.4646 30.6146 35.2977 30.9315 35.0546 31.1851L30.4075 35.9662C29.9811 36.3987 29.4779 36.7481 28.9237 36.9966L21.7109 40.0878C21.0814 40.3653 20.4 40.5058 19.712 40.4999Z" fill="white"/>
<path d="M20.5466 34.8946C20.2706 34.8938 19.9964 34.8522 19.7326 34.771L13.4266 32.8029C13.3232 32.779 13.2258 32.7341 13.1405 32.6709C13.0552 32.6077 12.9838 32.5277 12.9308 32.4357C12.8779 32.3437 12.8444 32.2418 12.8325 32.1364C12.8206 32.0309 12.8306 31.9241 12.8619 31.8227C12.8931 31.7212 12.9448 31.6273 13.014 31.5467C13.0831 31.4662 13.168 31.4007 13.2636 31.3545C13.3591 31.3082 13.4631 31.2821 13.5691 31.2778C13.6752 31.2735 13.781 31.2911 13.88 31.3295L20.1963 33.2975C20.4891 33.3869 20.8048 33.3636 21.0813 33.232C21.3578 33.1004 21.5751 32.8702 21.6904 32.5865C21.7538 32.4366 21.7865 32.2754 21.7865 32.1125C21.7865 31.9497 21.7538 31.7885 21.6904 31.6386C21.6224 31.4893 21.5255 31.3551 21.4052 31.2436C21.285 31.1322 21.1437 31.0458 20.9897 30.9894L17.2803 29.6602C17.1404 29.6113 17.0184 29.5215 16.9299 29.4026C16.9299 29.4026 14.4364 26.2084 11.6852 25.4665C10.8298 25.2796 9.94565 25.2645 9.08426 25.4219C8.22286 25.5793 7.40129 25.9062 6.66719 26.3836C6.5023 26.4865 6.30467 26.5235 6.1137 26.4872C5.92273 26.4509 5.75245 26.344 5.6368 26.1878C5.53035 26.0248 5.49028 25.8273 5.52476 25.6357C5.55924 25.4441 5.6657 25.273 5.82229 25.1574C6.74207 24.5517 7.77516 24.139 8.85908 23.9442C9.94299 23.7493 11.0552 23.7765 12.1283 24.0239C15.0031 24.7967 17.4348 27.5685 18.0428 28.3207L21.5461 29.5778C21.8976 29.6983 22.2202 29.8906 22.4934 30.1425C22.7666 30.3944 22.9843 30.7003 23.1329 31.0409C23.2723 31.3738 23.3442 31.7311 23.3442 32.0919C23.3442 32.4528 23.2723 32.8101 23.1329 33.1429C22.9255 33.6594 22.5684 34.1021 22.1076 34.4142C21.6468 34.7263 21.1032 34.8936 20.5466 34.8946Z" fill="white"/>
<path d="M3.76158 38.0579H2.89602C2.52527 38.0579 2.15817 37.9848 1.81563 37.8429C1.4731 37.7011 1.16183 37.4931 0.899667 37.2309C0.637501 36.9688 0.429564 36.6575 0.287681 36.315C0.145798 35.9725 0.0727539 35.6053 0.0727539 35.2346V26.1465C0.0727539 25.3977 0.370199 24.6796 0.899667 24.1501C1.42913 23.6207 2.14724 23.3232 2.89602 23.3232H3.76158C4.51131 23.3232 5.23048 23.6203 5.76159 24.1495C6.29269 24.6787 6.59244 25.3968 6.59517 26.1465V35.2037C6.59789 35.5775 6.52658 35.9482 6.3854 36.2943C6.24421 36.6405 6.03592 36.9553 5.77253 37.2206C5.50914 37.486 5.19585 37.6965 4.85072 37.8402C4.50558 37.9839 4.13543 38.0579 3.76158 38.0579ZM2.89602 24.8688C2.55799 24.8715 2.23459 25.007 1.99556 25.246C1.75653 25.485 1.62104 25.8085 1.61835 26.1465V35.2037C1.62104 35.5417 1.75653 35.8651 1.99556 36.1041C2.23459 36.3432 2.55799 36.4787 2.89602 36.4813H3.76158C4.1014 36.4814 4.42743 36.3471 4.66868 36.1077C4.90993 35.8684 5.04686 35.5435 5.04957 35.2037V26.1156C5.03113 25.7866 4.88731 25.4773 4.64774 25.2511C4.40816 25.025 4.09104 24.8992 3.76158 24.8997L2.89602 24.8688Z" fill="white"/>
<path d="M22.3396 4.29182C19.2484 4.29182 11.0052 1.93222 10.6343 1.82918L10.9743 0.644226C11.0568 0.644226 19.4545 3.05535 22.3087 3.05535L22.3396 4.29182Z" fill="white"/>
<path d="M25.6471 16.5741C24.7585 16.5741 23.8899 16.3106 23.1511 15.817C22.4123 15.3233 21.8365 14.6217 21.4965 13.8008C21.1565 12.9799 21.0675 12.0766 21.2409 11.2051C21.4142 10.3337 21.8421 9.53319 22.4704 8.9049C23.0987 8.27661 23.8992 7.84874 24.7706 7.67539C25.6421 7.50205 26.5454 7.59101 27.3663 7.93104C28.1872 8.27107 28.8888 8.84688 29.3825 9.58567C29.8761 10.3245 30.1396 11.193 30.1396 12.0816C30.1396 13.2731 29.6662 14.4158 28.8237 15.2583C27.9812 16.1008 26.8385 16.5741 25.6471 16.5741ZM25.6471 8.83585C25.0026 8.83585 24.3727 9.02708 23.837 9.38531C23.3013 9.74355 22.884 10.2527 22.6379 10.8483C22.3917 11.4438 22.3279 12.099 22.4543 12.7309C22.5808 13.3628 22.892 13.943 23.3484 14.3979C23.8047 14.8529 24.3859 15.1622 25.0182 15.2866C25.6505 15.4111 26.3055 15.3451 26.9002 15.0971C27.495 14.8491 28.0028 14.4302 28.3594 13.8934C28.7159 13.3565 28.9051 12.726 28.9031 12.0816C28.9004 11.2198 28.5561 10.3943 27.9458 9.78587C27.3355 9.17747 26.5088 8.83585 25.6471 8.83585Z" fill="white"/>
<path d="M35.3224 15.2861C34.292 15.2861 31.6026 14.9152 29.0164 14.4721L29.2328 13.2459C31.1493 13.586 33.1998 13.8436 34.4672 13.9775C34.2219 13.1549 34.097 12.3011 34.0962 11.4427H35.3327C35.3394 12.4755 35.5458 13.4972 35.9406 14.4515C35.9763 14.5486 35.9874 14.653 35.973 14.7555C35.9586 14.8579 35.9192 14.9553 35.8582 15.0388C35.7948 15.1194 35.7131 15.1839 35.62 15.2269C35.5269 15.2698 35.4249 15.2901 35.3224 15.2861Z" fill="white"/>
<path d="M35.9615 12.1124L29.3772 11.6694L29.4597 10.4432L35.642 10.8554C36.4041 9.56082 36.7629 8.06841 36.6724 6.56892C36.6724 4.4154 35.9924 2.77707 35.2814 2.30309C33.9831 2.62252 27.842 4.13719 26.1006 4.13719V2.90072C29.1726 2.4735 32.2148 1.85404 35.2093 1.04601C35.3366 1.00503 35.4735 1.00503 35.6008 1.04601C37.1979 1.70546 37.9089 4.28145 37.9089 6.53801C38.0314 8.40718 37.5353 10.2647 36.4973 11.8239C36.442 11.9156 36.3631 11.9907 36.2688 12.0415C36.1746 12.0922 36.0684 12.1167 35.9615 12.1124Z" fill="white"/>
<path d="M9.5111 15.9354C9.40817 15.9332 9.30736 15.9057 9.21753 15.8554C9.1277 15.8051 9.05158 15.7335 8.99591 15.6469C7.51641 13.4618 6.79264 10.8527 6.93512 8.21773C6.93512 3.67369 8.34674 0.500076 10.3663 0.500076C12.1386 0.500076 13.3236 3.25123 13.3236 7.34189C13.3236 10.33 12.2932 12.4217 10.8197 12.4217C9.90264 12.4217 9.12986 10.6185 9.12986 8.47533C9.13249 7.4626 9.26757 6.45457 9.5317 5.47688C9.56784 5.34625 9.64594 5.23112 9.75392 5.1492C9.8619 5.06728 9.99381 5.02312 10.1293 5.02351H11.4173V6.25998H10.6136C10.4533 6.98764 10.3704 7.73022 10.3663 8.47533C10.3215 9.40249 10.528 10.3246 10.964 11.1441C11.4276 10.9174 12.0974 9.63967 12.0974 7.34189C12.0974 3.4264 10.9536 1.73655 10.3663 1.73655C9.60382 1.73655 8.1716 3.64278 8.1716 8.21773C8.03784 10.473 8.60272 12.7146 9.7893 14.6371C11.7161 14.2971 19.7223 12.9266 21.9067 12.7721L21.9995 14.0085C19.6296 14.1734 9.68626 15.9045 9.63475 15.9251L9.5111 15.9354Z" fill="white"/>
<path d="M11.1907 12.3701L11.0464 11.1336C11.1082 11.1336 17.6821 10.3505 21.9686 10.1857L22.0201 11.4222C17.7852 11.587 11.2525 12.3598 11.1907 12.3701Z" fill="white"/>
<path d="M24.3181 8.77403L23.0816 8.71221C23.0816 8.54735 23.0816 8.38248 23.0816 8.21762C23.1791 6.71899 22.7368 5.23496 21.8348 4.03422C21.7045 3.9025 21.6161 3.73511 21.5809 3.55321C21.5456 3.3713 21.565 3.18302 21.6367 3.01215C21.7083 2.84127 21.829 2.69545 21.9835 2.59311C22.1379 2.49076 22.3193 2.43648 22.5046 2.43711H24.9878C26.8219 2.43711 28.1924 4.92036 28.1924 8.21762C28.1924 8.39279 28.1924 8.57826 28.1924 8.75343H26.9559C26.9559 8.58857 26.9559 8.4237 26.9559 8.26914C26.9559 5.67255 25.9255 3.7251 24.9878 3.7251H23.1331C23.9603 5.09286 24.372 6.67161 24.3181 8.26914C24.3284 8.4134 24.3284 8.58856 24.3181 8.77403Z" fill="white"/>
<path d="M28.2023 25.8476L25.6469 23.2923L23.1018 25.8476V15.317H24.3383V22.8595L25.6469 21.5406L26.9658 22.8595V15.317H28.2023V25.8476Z" fill="white"/>
</svg>
