<svg width="52" height="53" viewBox="0 0 52 53" fill="none" xmlns="http://www.w3.org/2000/svg">
<path d="M22.951 45.4586C22.8486 45.4506 22.7504 45.415 22.6667 45.3556C22.5829 45.2962 22.5169 45.2151 22.4755 45.1212C22.4342 45.0272 22.4191 44.9238 22.4318 44.8219C22.4446 44.72 22.4847 44.6235 22.548 44.5427L24.1601 42.9123C24.2121 42.8594 24.2741 42.8174 24.3425 42.7887C24.4109 42.76 24.4843 42.7452 24.5585 42.7452C24.6327 42.7452 24.7061 42.76 24.7745 42.7887C24.8429 42.8174 24.9049 42.8594 24.9569 42.9123C25.0594 43.0196 25.1166 43.1623 25.1166 43.3107C25.1166 43.4591 25.0594 43.6018 24.9569 43.7091L23.3815 45.2938C23.3256 45.3503 23.2583 45.3942 23.184 45.4227C23.1098 45.4511 23.0303 45.4634 22.951 45.4586Z" fill="white"/>
<path d="M20.2855 44.6709C20.1746 44.6697 20.0665 44.6361 19.9746 44.5742C19.8826 44.5123 19.8107 44.4248 19.7678 44.3225C19.725 44.2202 19.713 44.1077 19.7334 43.9987C19.7538 43.8897 19.8056 43.789 19.8825 43.7091L23.7479 39.8255C23.8571 39.7405 23.9936 39.6985 24.1317 39.7071C24.2698 39.7157 24.4001 39.7745 24.4979 39.8723C24.5958 39.9702 24.6545 40.1004 24.6631 40.2385C24.6718 40.3766 24.6297 40.5131 24.5447 40.6223L20.6794 44.506C20.6281 44.5584 20.5668 44.6 20.4991 44.6283C20.4315 44.6566 20.3589 44.6711 20.2855 44.6709Z" fill="white"/>
<path d="M19.4887 41.6666C19.3786 41.6637 19.2717 41.6288 19.181 41.5662C19.0904 41.5036 19.0199 41.416 18.9782 41.3141C18.9364 41.2122 18.9252 41.1003 18.9459 40.9921C18.9667 40.8839 19.0184 40.7841 19.0948 40.7048L20.1115 39.6881C20.1609 39.6245 20.2233 39.5721 20.2945 39.5345C20.3657 39.4969 20.4441 39.4748 20.5245 39.4698C20.6049 39.4648 20.6854 39.4769 20.7608 39.5054C20.8361 39.5339 20.9045 39.5781 20.9615 39.635C21.0184 39.692 21.0626 39.7604 21.0911 39.8357C21.1196 39.9111 21.1317 39.9916 21.1267 40.072C21.1217 40.1524 21.0996 40.2308 21.062 40.302C21.0243 40.3732 20.972 40.4356 20.9084 40.485L19.8917 41.5017C19.8387 41.5544 19.7758 41.596 19.7066 41.6243C19.6374 41.6526 19.5634 41.667 19.4887 41.6666Z" fill="white"/>
<path d="M21.4305 28.2661C21.2015 28.2661 20.9725 28.2661 20.7435 28.2661C19.8187 28.183 18.9196 27.9166 18.0988 27.4826C17.2779 27.0486 16.5516 26.4555 15.9622 25.738L10.6863 19.3263C10.6362 19.271 10.5988 19.2055 10.5767 19.1343C10.5545 19.0632 10.5482 18.988 10.558 18.9141C10.5649 18.8412 10.5863 18.7705 10.6209 18.706C10.6555 18.6415 10.7027 18.5846 10.7596 18.5386L21.4671 9.6812C21.5236 9.63421 21.5888 9.59883 21.659 9.57708C21.7292 9.55532 21.803 9.54763 21.8762 9.55443C21.9494 9.56124 22.0205 9.58241 22.0855 9.61674C22.1504 9.65107 22.208 9.69788 22.2548 9.75449L27.54 16.1662C28.7362 17.6091 29.3115 19.4674 29.1398 21.3338C28.9681 23.2001 28.0634 24.9223 26.624 26.1227L25.9462 26.6814C24.6732 27.7225 23.0749 28.2834 21.4305 28.2661ZM11.9137 19.0332L16.8324 24.9869C17.8394 26.199 19.2852 26.9632 20.8539 27.1125C22.4226 27.2618 23.9867 26.7841 25.2042 25.7838L25.8821 25.2159C27.0943 24.2106 27.8581 22.7654 28.0058 21.1975C28.1535 19.6296 27.673 18.0672 26.6698 16.8532L21.7511 10.8994L11.9137 19.0332Z" fill="white"/>
<path d="M37.7987 38.3416C37.7198 38.3405 37.642 38.3238 37.5696 38.2923C37.4973 38.2609 37.4319 38.2154 37.3773 38.1584L35.921 36.5097C35.8397 36.3967 35.8028 36.2577 35.8172 36.1192C35.8317 35.9808 35.8965 35.8524 35.9993 35.7586C36.1022 35.6647 36.236 35.612 36.3752 35.6103C36.5144 35.6086 36.6494 35.6582 36.7545 35.7495L38.2109 37.3432C38.2779 37.4237 38.3209 37.5214 38.3351 37.6251C38.3492 37.7289 38.334 37.8345 38.291 37.93C38.248 38.0255 38.1791 38.107 38.0921 38.1652C38.005 38.2234 37.9033 38.256 37.7987 38.2592V38.3416Z" fill="white"/>
<path d="M28.8772 27.7165C28.7936 27.7173 28.7109 27.6997 28.6349 27.6649C28.5589 27.63 28.4915 27.5788 28.4376 27.5149L26.6056 25.3075C26.5587 25.2503 26.5235 25.1845 26.5021 25.1138C26.4806 25.0431 26.4733 24.9688 26.4805 24.8952C26.4877 24.8216 26.5094 24.7502 26.5442 24.685C26.579 24.6198 26.6264 24.5621 26.6835 24.5152C26.7407 24.4683 26.8065 24.4331 26.8772 24.4116C26.9479 24.3901 27.0222 24.3828 27.0958 24.39C27.1694 24.3972 27.2408 24.4189 27.306 24.4537C27.3712 24.4886 27.4289 24.5359 27.4758 24.593L29.3077 26.8005C29.3547 26.857 29.3901 26.9222 29.4119 26.9924C29.4336 27.0626 29.4413 27.1364 29.4345 27.2096C29.4277 27.2827 29.4065 27.3538 29.3722 27.4188C29.3379 27.4838 29.2911 27.5414 29.2345 27.5882C29.1348 27.6728 29.0079 27.7183 28.8772 27.7165Z" fill="white"/>
<path d="M35.3714 40.3659C35.288 40.3655 35.2056 40.3473 35.1298 40.3126C35.054 40.2778 34.9865 40.2273 34.9317 40.1644L33.6219 38.5706C33.5272 38.4552 33.4822 38.3069 33.4968 38.1583C33.5114 38.0097 33.5844 37.873 33.6998 37.7783C33.8152 37.6836 33.9635 37.6385 34.1121 37.6531C34.2606 37.6677 34.3973 37.7408 34.4921 37.8562L35.8019 39.4408C35.8973 39.5564 35.9432 39.705 35.9295 39.8543C35.9157 40.0036 35.8435 40.1414 35.7286 40.2377C35.6271 40.3188 35.5014 40.3639 35.3714 40.3659Z" fill="white"/>
<path d="M26.1294 29.182C26.0471 29.1828 25.9657 29.1651 25.8912 29.1302C25.8167 29.0953 25.751 29.0442 25.6989 28.9805L24.2974 27.2768C24.2027 27.1627 24.1572 27.0155 24.1709 26.8678C24.1847 26.72 24.2565 26.5838 24.3707 26.4891C24.4849 26.3943 24.632 26.3488 24.7798 26.3626C24.9275 26.3763 25.0637 26.4482 25.1584 26.5624L26.569 28.2661C26.6375 28.3483 26.6808 28.4485 26.694 28.5547C26.7071 28.6609 26.6895 28.7687 26.6432 28.8651C26.5969 28.9616 26.5239 29.0428 26.4328 29.0989C26.3417 29.1551 26.2364 29.184 26.1294 29.182Z" fill="white"/>
<path d="M29.3169 17.9157C29.1794 17.9161 29.0462 17.8674 28.9414 17.7783C28.8305 17.6782 28.7634 17.5384 28.7549 17.3893C28.7463 17.2401 28.7968 17.0936 28.8956 16.9814C30.3886 15.296 30.1779 12.8779 28.3552 10.4415L24.7371 13.4275C24.6806 13.4745 24.6154 13.5099 24.5452 13.5316C24.475 13.5534 24.4012 13.5611 24.3281 13.5543C24.2549 13.5475 24.1838 13.5263 24.1188 13.492C24.0538 13.4576 23.9962 13.4108 23.9494 13.3542C23.8539 13.2386 23.8081 13.09 23.8218 12.9407C23.8355 12.7914 23.9078 12.6536 24.0227 12.5573L28.0804 9.20492C28.1955 9.10958 28.3436 9.06349 28.4925 9.07667C28.6418 9.09211 28.7795 9.16424 28.8773 9.27818C31.4053 12.3375 31.7259 15.4884 29.7383 17.7325C29.6843 17.7903 29.6191 17.8363 29.5466 17.8679C29.4741 17.8994 29.396 17.9157 29.3169 17.9157Z" fill="white"/>
<path d="M14.5333 28.8981C12.6464 28.8981 10.6954 27.8172 8.97341 25.738C8.92641 25.6815 8.89104 25.6163 8.86928 25.5461C8.84753 25.4759 8.83983 25.4021 8.84664 25.3289C8.85345 25.2558 8.87462 25.1846 8.90895 25.1197C8.94328 25.0547 8.99009 24.9971 9.0467 24.9503L13.1044 21.5887C13.2209 21.4955 13.369 21.4511 13.5176 21.4648C13.6662 21.4784 13.8037 21.5491 13.9013 21.662C13.9967 21.7776 14.0426 21.9262 14.0289 22.0755C14.0151 22.2248 13.9429 22.3626 13.828 22.4589L10.21 25.4449C12.2709 27.6982 14.6066 28.3576 16.5393 27.2035C16.6023 27.1654 16.6723 27.1401 16.7452 27.1291C16.8181 27.1181 16.8925 27.1216 16.964 27.1395C17.0355 27.1574 17.1028 27.1893 17.162 27.2333C17.2211 27.2773 17.271 27.3325 17.3087 27.3959C17.3468 27.459 17.3721 27.529 17.3831 27.6019C17.3941 27.6748 17.3905 27.7491 17.3727 27.8206C17.3548 27.8922 17.3229 27.9594 17.2789 28.0186C17.2349 28.0777 17.1797 28.1276 17.1163 28.1653C16.339 28.6422 15.4453 28.8957 14.5333 28.8981Z" fill="white"/>
<path d="M9.71532 20.7002C9.59972 20.6994 9.48711 20.6633 9.39255 20.5968C9.29799 20.5303 9.226 20.4365 9.18617 20.328C9.14635 20.2194 9.1406 20.1013 9.16968 19.9894C9.19877 19.8775 9.2613 19.7772 9.34894 19.7018L22.7403 8.62784C22.7974 8.58093 22.8633 8.54572 22.934 8.52425C23.0047 8.50277 23.079 8.49544 23.1526 8.50267C23.2261 8.5099 23.2976 8.53157 23.3628 8.5664C23.428 8.60123 23.4857 8.64855 23.5326 8.70569C23.5795 8.76283 23.6147 8.82866 23.6362 8.8994C23.6576 8.97014 23.665 9.04439 23.6578 9.11797C23.6505 9.19154 23.6289 9.26297 23.594 9.32817C23.5592 9.39338 23.5119 9.4511 23.4547 9.49801L10.0726 20.572C9.97003 20.6514 9.84496 20.6963 9.71532 20.7002Z" fill="white"/>
<path d="M34.5379 45.2388H34.373C34.282 45.2106 34.1998 45.1596 34.134 45.0907C34.0683 45.0218 34.0213 44.9372 33.9975 44.845L33.1365 41.5292C33.108 41.4278 33.1093 41.3204 33.1401 41.2197C33.171 41.119 33.2301 41.0293 33.3105 40.9613L38.9803 36.0242C39.0581 35.9563 39.1536 35.9116 39.2556 35.8954C39.3577 35.8792 39.4623 35.8921 39.5573 35.9326L42.7357 37.2333C42.823 37.272 42.8995 37.3315 42.9586 37.4065C43.0176 37.4816 43.0575 37.5699 43.0746 37.6638C43.0895 37.7578 43.0806 37.8541 43.0486 37.9437C43.0165 38.0333 42.9625 38.1135 42.8914 38.1768L34.9134 45.1289C34.8049 45.2082 34.672 45.247 34.5379 45.2388ZM34.3089 41.575L34.8585 43.6817L41.4625 37.9294L39.4566 37.1051L34.3089 41.575Z" fill="white"/>
<path d="M26.798 43.3886C26.6871 43.3874 26.579 43.3538 26.487 43.2918C26.395 43.2299 26.3232 43.1425 26.2803 43.0402C26.2374 42.9379 26.2255 42.8253 26.2458 42.7163C26.2662 42.6073 26.3181 42.5067 26.395 42.4268L28.7765 40.0453C28.8662 39.9568 28.9816 39.8991 29.1062 39.8804L31.7717 39.5598L34.1623 37.1783C34.2716 37.0934 34.4081 37.0513 34.5462 37.0599C34.6843 37.0686 34.8145 37.1273 34.9124 37.2252C35.0102 37.323 35.069 37.4532 35.0776 37.5914C35.0862 37.7295 35.0441 37.866 34.9592 37.9752L32.4312 40.4941C32.344 40.586 32.2273 40.6444 32.1014 40.659L29.436 40.9796L27.1919 43.2237C27.1405 43.276 27.0793 43.3176 27.0116 43.3459C26.944 43.3742 26.8714 43.3887 26.798 43.3886Z" fill="white"/>
<path d="M21.5496 38.3416C21.4387 38.3404 21.3306 38.3068 21.2386 38.2449C21.1466 38.183 21.0747 38.0955 21.0318 37.9932C20.989 37.891 20.977 37.7784 20.9974 37.6694C21.0178 37.5604 21.0696 37.4597 21.1465 37.3799L23.3632 35.1724V31.7284C23.3645 31.1397 23.583 30.5722 23.9769 30.1346L26.1752 27.7348L26.2576 27.6615C26.7247 27.3197 27.2993 27.1575 27.8763 27.2046C28.4532 27.2517 28.9939 27.5049 29.3994 27.918L33.2738 31.9024C33.3696 31.9995 33.4437 32.1159 33.4911 32.2438C33.5384 32.3717 33.5581 32.5083 33.5487 32.6443C33.5442 32.7796 33.5099 32.9121 33.4481 33.0325C33.3863 33.1528 33.2987 33.258 33.1914 33.3405L32.9808 33.5145C32.4924 33.912 31.8757 34.1173 31.2465 34.092C30.6174 34.0667 30.0191 33.8125 29.5642 33.3771L27.9613 32.1039C27.9011 32.0582 27.8506 32.0011 27.8125 31.9359C27.7745 31.8706 27.7496 31.7985 27.7394 31.7237C27.7292 31.6488 27.7338 31.5727 27.753 31.4996C27.7723 31.4266 27.8057 31.358 27.8514 31.2979C27.8971 31.2377 27.9542 31.1872 28.0194 31.1491C28.0847 31.111 28.1568 31.0862 28.2316 31.076C28.3065 31.0658 28.3826 31.0704 28.4557 31.0896C28.5287 31.1088 28.5973 31.1423 28.6574 31.188L30.2695 32.4795C30.5263 32.7377 30.8695 32.8918 31.2331 32.9121C31.5967 32.9324 31.9549 32.8174 32.2388 32.5894L32.3304 32.5161L28.5658 28.6508C28.356 28.4373 28.0781 28.304 27.7804 28.2739C27.4826 28.2438 27.1837 28.3188 26.9354 28.4859L24.7829 30.8399C24.5703 31.0646 24.455 31.3642 24.4623 31.6734V35.3373C24.4636 35.4107 24.4496 35.4837 24.4212 35.5515C24.3928 35.6193 24.3507 35.6804 24.2974 35.7311L21.9159 38.1126C21.8735 38.1736 21.8192 38.2253 21.7562 38.2646C21.6932 38.304 21.6229 38.3302 21.5496 38.3416Z" fill="white"/>
<path d="M34.547 38.021C34.3593 38.0229 34.1731 37.9865 33.9999 37.914C33.8267 37.8416 33.67 37.7346 33.5395 37.5997L32.9258 36.9768C32.7915 36.8447 32.6848 36.6872 32.612 36.5134C32.5392 36.3396 32.5017 36.1531 32.5017 35.9647C32.5017 35.7763 32.5392 35.5898 32.612 35.416C32.6848 35.2422 32.7915 35.0847 32.9258 34.9526L35.1516 32.7451C35.2843 32.6119 35.4421 32.5062 35.6157 32.4341C35.7894 32.362 35.9756 32.3248 36.1637 32.3248C36.3518 32.3248 36.538 32.362 36.7117 32.4341C36.8853 32.5062 37.0431 32.6119 37.1758 32.7451L37.7896 33.3588C38.0593 33.6284 38.2108 33.9942 38.2109 34.3755C38.2054 34.7576 38.0509 35.1224 37.7804 35.3922L35.5546 37.5997C35.4231 37.7334 35.2662 37.8395 35.0932 37.9118C34.9202 37.9842 34.7346 38.0213 34.547 38.021ZM33.7135 36.1891L34.3272 36.8028C34.355 36.8331 34.3891 36.8569 34.4271 36.8728C34.465 36.8886 34.506 36.896 34.547 36.8944C34.628 36.8948 34.7062 36.8655 34.7669 36.812L36.9926 34.6045C37.0508 34.5461 37.0835 34.4671 37.0835 34.3847C37.0835 34.3023 37.0508 34.2232 36.9926 34.1648L36.379 33.542C36.3206 33.4838 36.2416 33.4511 36.1591 33.4511C36.0767 33.4511 35.9977 33.4838 35.9393 33.542L33.7135 35.7495C33.6553 35.8078 33.6227 35.8869 33.6227 35.9693C33.6227 36.0517 33.6553 36.1307 33.7135 36.1891Z" fill="white"/>
<path d="M32.7059 36.1708C32.5163 36.1706 32.3287 36.1324 32.154 36.0584C31.9794 35.9845 31.8214 35.8763 31.6892 35.7403L30.8282 34.8793C30.6225 34.6674 30.4861 34.398 30.437 34.1069C30.388 33.8157 30.4285 33.5164 30.5534 33.2489C30.5787 33.1723 30.62 33.102 30.6746 33.0426C30.7291 32.9832 30.7957 32.9361 30.8699 32.9045C30.944 32.8728 31.0241 32.8573 31.1047 32.859C31.1853 32.8607 31.2647 32.8796 31.3375 32.9143C31.4102 32.949 31.4747 32.9989 31.5268 33.0605C31.5788 33.1222 31.6171 33.1942 31.6391 33.2717C31.6611 33.3493 31.6663 33.4307 31.6544 33.5105C31.6426 33.5902 31.6138 33.6665 31.5702 33.7343C31.5418 33.7908 31.5318 33.8548 31.5417 33.9172C31.5515 33.9796 31.5807 34.0374 31.6251 34.0824L32.4861 34.9525C32.5445 35.0107 32.6235 35.0434 32.7059 35.0434C32.7884 35.0434 32.8674 35.0107 32.9258 34.9526L35.518 32.3787C35.5473 32.3502 35.5706 32.316 35.5863 32.2782C35.6021 32.2404 35.61 32.1998 35.6096 32.1589C35.61 32.078 35.5806 31.9997 35.5271 31.9391L34.6661 31.078C34.6376 31.0487 34.6034 31.0254 34.5656 31.0097C34.5278 30.9939 34.4872 30.986 34.4463 30.9864C34.4053 30.986 34.3647 30.9939 34.327 31.0097C34.2892 31.0254 34.255 31.0487 34.2264 31.078L33.1548 32.1406C33.0455 32.2255 32.909 32.2676 32.7709 32.2589C32.6328 32.2503 32.5026 32.1916 32.4047 32.0937C32.3069 31.9959 32.2481 31.8657 32.2395 31.7276C32.2309 31.5895 32.273 31.4529 32.3579 31.3437L33.4387 30.272C33.571 30.14 33.7282 30.0356 33.9011 29.9648C34.0741 29.894 34.2594 29.8583 34.4463 29.8598C34.8245 29.8623 35.1864 30.0137 35.4538 30.2812L36.3148 31.1513C36.5812 31.4224 36.7294 31.788 36.727 32.168C36.7278 32.3556 36.6909 32.5415 36.6185 32.7145C36.5462 32.8876 36.4398 33.0444 36.3057 33.1756L33.7043 35.7495C33.4398 36.0155 33.0812 36.1669 32.7059 36.1708Z" fill="white"/>
<path d="M32.6144 32.4337C32.5023 32.4351 32.3924 32.4027 32.299 32.3409C32.2056 32.279 32.1329 32.1904 32.0904 32.0867C32.0479 31.983 32.0376 31.8689 32.0608 31.7593C32.084 31.6497 32.1397 31.5495 32.2205 31.4719L33.8051 29.9056C33.8337 29.8775 33.8563 29.844 33.8718 29.807C33.8872 29.7701 33.8952 29.7304 33.8952 29.6904C33.8952 29.6503 33.8872 29.6107 33.8718 29.5737C33.8563 29.5368 33.8337 29.5032 33.8051 29.4751L32.9533 28.605C32.8949 28.5468 32.8158 28.5141 32.7334 28.5141C32.651 28.5141 32.572 28.5468 32.5136 28.605L30.9473 30.1987C30.8429 30.3044 30.7007 30.3643 30.5521 30.3651C30.4035 30.366 30.2607 30.3078 30.155 30.2033C30.0493 30.0988 29.9895 29.9567 29.9886 29.8081C29.9878 29.6595 30.046 29.5167 30.1505 29.411L31.7167 27.8081C31.9876 27.5407 32.3528 27.3908 32.7334 27.3908C33.114 27.3908 33.4793 27.5407 33.7502 27.8081L34.6112 28.6782C34.878 28.9475 35.0277 29.3113 35.0277 29.6904C35.0277 30.0695 34.878 30.4332 34.6112 30.7025L33.0174 32.278C32.9073 32.3785 32.7635 32.4341 32.6144 32.4337Z" fill="white"/>
<path d="M30.5809 30.3453C30.5096 30.3465 30.4389 30.3333 30.3728 30.3065C30.3067 30.2798 30.2466 30.24 30.1962 30.1896C30.1433 30.1376 30.1013 30.0756 30.0727 30.0071C30.044 29.9387 30.0292 29.8653 30.0292 29.7911C30.0292 29.7169 30.044 29.6435 30.0727 29.5751C30.1013 29.5067 30.1433 29.4447 30.1962 29.3927L31.3595 28.1836C31.4182 28.1237 31.4512 28.0431 31.4512 27.9592C31.4512 27.8753 31.4182 27.7947 31.3595 27.7348L30.5077 26.8738C30.4791 26.8444 30.4449 26.8212 30.4071 26.8054C30.3694 26.7897 30.3288 26.7818 30.2878 26.7822C30.2066 26.7799 30.1277 26.8095 30.068 26.8646L28.7857 28.1561C28.6788 28.2654 28.5328 28.3278 28.3799 28.3296C28.2271 28.3313 28.0798 28.2722 27.9705 28.1653C27.8611 28.0584 27.7988 27.9125 27.797 27.7596C27.7953 27.6067 27.8544 27.4594 27.9613 27.3501L29.2436 26.0586C29.5153 25.7931 29.8805 25.645 30.2604 25.6464C30.4493 25.6454 30.6366 25.6822 30.8112 25.7545C30.9858 25.8269 31.1442 25.9334 31.2771 26.0677L32.1381 26.9379C32.4049 27.2072 32.5546 27.5709 32.5546 27.95C32.5546 28.3291 32.4049 28.6929 32.1381 28.9622L30.984 30.1621C30.9331 30.2189 30.8711 30.2645 30.8017 30.2961C30.7323 30.3276 30.6571 30.3443 30.5809 30.3453Z" fill="white"/>
<path d="M28.4742 37.8195C28.3467 37.8192 28.2234 37.7738 28.1261 37.6913C28.0682 37.6457 28.0198 37.5892 27.9838 37.5249C27.9478 37.4605 27.9249 37.3897 27.9164 37.3165C27.9079 37.2433 27.9139 37.1691 27.9342 37.0982C27.9545 37.0273 27.9886 36.9612 28.0345 36.9036C29.0787 35.5937 28.1262 32.5436 27.6773 31.4811C27.619 31.3438 27.6176 31.189 27.6735 31.0507C27.7293 30.9125 27.8378 30.802 27.975 30.7437C28.1123 30.6854 28.2671 30.684 28.4053 30.7399C28.5436 30.7957 28.6541 30.9042 28.7124 31.0414C28.7948 31.2246 30.5901 35.5113 28.9139 37.5997C28.8627 37.6679 28.7963 37.7234 28.72 37.7615C28.6437 37.7997 28.5595 37.8195 28.4742 37.8195Z" fill="white"/>
</svg>
