<svg width="58" height="51" viewBox="0 0 58 51" fill="none" xmlns="http://www.w3.org/2000/svg">
<path d="M12.7281 47.1089C13.8005 48.963 15.7799 50.1047 17.9218 50.1047L39.9216 50.1047C42.0635 50.1047 44.0429 48.963 45.1153 47.1089L56.1055 28.1089C57.1806 26.2504 57.1806 23.9591 56.1055 22.1005L45.1153 3.10052C44.0429 1.24649 42.0635 0.104736 39.9216 0.104736L17.9218 0.104735C15.7799 0.104735 13.8005 1.24649 12.7281 3.10052L1.73786 22.1005C0.662814 23.9591 0.662814 26.2504 1.73786 28.1089L12.7281 47.1089Z" fill="#2E3947"/>
<path d="M28.9219 22.2714C27.3571 22.2714 26.0885 23.5399 26.0885 25.1047C26.0885 26.6695 27.3571 27.9381 28.9219 27.9381C30.4867 27.9381 31.7552 26.6695 31.7552 25.1047C31.7552 23.5399 30.4867 22.2714 28.9219 22.2714Z" fill="white"/>
<path fill-rule="evenodd" clip-rule="evenodd" d="M16.1719 19.4381C16.1719 15.5261 19.3432 12.3547 23.2552 12.3547H34.5885C38.5006 12.3547 41.6719 15.5261 41.6719 19.4381V30.7714C41.6719 34.6834 38.5006 37.8547 34.5885 37.8547H23.2552C19.3432 37.8547 16.1719 34.6834 16.1719 30.7714V19.4381ZM23.2552 25.1047C23.2552 21.9751 25.7923 19.4381 28.9219 19.4381C32.0515 19.4381 34.5885 21.9751 34.5885 25.1047C34.5885 28.2343 32.0515 30.7714 28.9219 30.7714C25.7923 30.7714 23.2552 28.2343 23.2552 25.1047ZM35.2969 20.1464C36.0793 20.1464 36.7135 19.5121 36.7135 18.7297C36.7135 17.9473 36.0793 17.3131 35.2969 17.3131C34.5145 17.3131 33.8802 17.9473 33.8802 18.7297C33.8802 19.5121 34.5145 20.1464 35.2969 20.1464Z" fill="white"/>
</svg>
